<svg width="20" height="21" viewBox="0 0 20 21" fill="none"
    xmlns="http://www.w3.org/2000/svg">
    <g clip-path="url(#clip0_598_2627)">
        <path d="M19.0226 15.4419C18.913 14.3 17.8936 13.4032 16.7065 13.4032C16.5645 13.4032 16.4516 13.2903 16.4516 13.1483V9.34834C16.4516 6.52576 14.6452 4.06448 12.1581 3.14513C12.1871 2.99995 12.2032 2.85159 12.2032 2.70318C12.2033 1.48712 11.2162 0.5 10 0.5C8.78386 0.5 7.79679 1.48712 7.79679 2.70324C7.79679 2.84842 7.8129 2.99354 7.8387 3.13226C6.98389 3.43549 6.19356 3.91612 5.51938 4.56774C4.24842 5.79355 3.54843 7.44193 3.54843 9.20967V13.1484C3.54843 13.2871 3.43552 13.4033 3.29357 13.4033C2.10325 13.4033 1.0871 14.3 0.977422 15.442C0.916118 16.0775 1.12583 16.7097 1.55486 17.1807C1.98065 17.6484 2.59035 17.9194 3.2258 17.9194H7.11614C7.27743 19.3678 8.50971 20.5001 10 20.5001C11.4903 20.5001 12.7226 19.3678 12.8839 17.9194H16.7743C17.4098 17.9194 18.0194 17.6484 18.4452 17.1807C18.871 16.7096 19.0839 16.0774 19.0226 15.4419ZM10 1.7903C10.5032 1.7903 10.9129 2.19998 10.9129 2.70318C10.9129 2.74509 10.9064 2.78383 10.9 2.82574C10.6806 2.79347 10.458 2.7709 10.2354 2.76443C9.85156 2.7515 9.47415 2.77736 9.09997 2.82897C9.0935 2.78706 9.08704 2.74833 9.08704 2.70641C9.08714 2.19998 9.49683 1.7903 10 1.7903ZM10 19.2096C9.22263 19.2096 8.57101 18.6548 8.41937 17.9193H11.5806C11.4291 18.6548 10.7775 19.2096 10 19.2096ZM17.4904 16.3129C17.3033 16.5161 17.0516 16.629 16.7742 16.629H3.22585C2.94842 16.629 2.69685 16.5161 2.50971 16.3129C2.32261 16.1097 2.23551 15.8419 2.26454 15.5645C2.30968 15.0774 2.76456 14.6935 3.2968 14.6935C4.14844 14.6935 4.84196 14 4.84196 13.1484V9.20967C4.84196 7.79677 5.40323 6.47743 6.41939 5.49678C7.38711 4.55809 8.65166 4.04837 10 4.04837C10.0646 4.04837 10.1258 4.04837 10.1904 4.05161C12.9291 4.14836 15.1613 6.52581 15.1613 9.34839V13.1484C15.1613 14 15.8549 14.6935 16.7065 14.6935C17.2387 14.6935 17.6936 15.0774 17.7387 15.5645C17.7646 15.8419 17.6774 16.1065 17.4904 16.3129Z" fill="#68696B"/>
        <path d="M1.6452 8.24188C1.94197 8.24188 2.2097 8.03545 2.27424 7.73545C2.58712 6.31931 3.29357 5.02901 4.32583 4.00322C4.57746 3.75159 4.57746 3.34191 4.32583 3.09033C4.0742 2.8387 3.66452 2.8387 3.41295 3.09033C2.20652 4.29024 1.37746 5.80318 1.01298 7.4612C0.935564 7.80957 1.15492 8.15472 1.5033 8.22895C1.55491 8.23865 1.60005 8.24188 1.6452 8.24188Z" fill="#68696B"/>
        <path d="M18.3549 8.24199C18.4 8.24199 18.4484 8.23553 18.4936 8.22589C18.842 8.14848 19.0613 7.80651 18.9839 7.45813C18.6194 5.80006 17.7904 4.2904 16.5839 3.08716C16.3322 2.83553 15.9226 2.83553 15.671 3.08716C15.4194 3.33879 15.4194 3.74847 15.671 4.00004C16.7 5.02584 17.4097 6.31619 17.7226 7.73228C17.7904 8.03551 18.0581 8.24199 18.3549 8.24199Z" fill="#68696B"/>
    </g>
    <defs>
        <clipPath id="clip0_598_2627">
            <rect width="20" height="20" fill="white" transform="translate(0 0.5)"/>
        </clipPath>
    </defs>
</svg>
