<svg width="101" height="100" viewBox="0 0 101 100" fill="none" xmlns="http://www.w3.org/2000/svg">
<g clip-path="url(#clip0_1166_7309)">
<path d="M81.045 73.2751L6.59338 98.1534C6.00182 98.3515 5.36675 98.3807 4.7595 98.2378C4.15225 98.0949 3.59688 97.7855 3.15575 97.3444C2.71463 96.9033 2.40524 96.3479 2.26232 95.7406C2.11941 95.1334 2.14863 94.4983 2.34671 93.9067L27.225 19.4551L81.045 73.2751Z" fill="#FDC70E"/>
<path d="M81.0451 73.2783C81.0451 73.2783 70.0801 70.795 49.9051 50.6C30.2651 30.9783 27.3651 20.0333 27.2268 19.4617V19.4417C27.2268 19.4417 38.2118 21.9266 58.3935 42.1083C78.5751 62.29 81.0451 73.2783 81.0451 73.2783Z" fill="#D39518"/>
<path d="M32.9335 89.35L21.9001 93.0333C19.5835 90.9666 17.1168 88.65 14.4835 86.0166C11.8501 83.3833 9.53346 80.9166 7.4668 78.6L11.1501 67.5667C13.9501 70.95 17.3668 74.7333 21.5668 78.9333C25.7668 83.1333 29.5501 86.55 32.9335 89.35Z" fill="#2167D8"/>
<path d="M62.9667 79.3168L51.1167 83.2668C44.5995 78.5855 38.5041 73.3433 32.9001 67.6001C27.1569 61.9961 21.9147 55.9007 17.2334 49.3834L21.1834 37.5334C26.5069 45.9199 32.8188 53.6363 39.9834 60.5168C46.8638 67.6814 54.5803 73.9933 62.9667 79.3168Z" fill="#D3374E"/>
<path d="M43.055 34.0101C42.7254 34.01 42.4032 33.9123 42.1292 33.7291C41.8552 33.546 41.6416 33.2857 41.5155 32.9812C41.3894 32.6767 41.3564 32.3417 41.4207 32.0184C41.485 31.6951 41.6436 31.3982 41.8767 31.1651C45.1349 28.0909 47.2867 24.0269 47.998 19.6041C48.7093 15.1813 47.9401 10.6475 45.81 6.70679C45.6824 6.51899 45.5944 6.30709 45.5516 6.0841C45.5088 5.86111 45.512 5.63172 45.5611 5.41002C45.6101 5.18831 45.7039 4.97896 45.8368 4.79482C45.9696 4.61068 46.1387 4.45562 46.3336 4.33917C46.5286 4.22271 46.7452 4.14731 46.9703 4.1176C47.1954 4.08789 47.4243 4.10449 47.6427 4.16638C47.8612 4.22827 48.0647 4.33415 48.2408 4.47752C48.4168 4.62089 48.5618 4.79873 48.6666 5.00012C51.1657 9.58184 52.0857 14.8593 51.2843 20.0163C50.483 25.1734 48.0049 29.9228 44.2333 33.5301C44.0783 33.6839 43.8944 33.8055 43.6921 33.8879C43.4899 33.9703 43.2733 34.0118 43.055 34.0101Z" fill="#2167D8"/>
<path d="M40.2667 17.2768C39.8247 17.2767 39.4009 17.101 39.0884 16.7885L36.2984 14.0001C36.1436 13.8453 36.0209 13.6615 35.9372 13.4592C35.8535 13.2569 35.8105 13.0401 35.8105 12.8212C35.8106 12.6023 35.8538 12.3855 35.9377 12.1833C36.0215 11.9811 36.1444 11.7974 36.2992 11.6426C36.612 11.3301 37.036 11.1546 37.4781 11.1548C37.6971 11.1549 37.9138 11.1981 38.116 11.2819C38.3182 11.3657 38.502 11.4886 38.6567 11.6435L41.445 14.4318C41.6781 14.6649 41.8367 14.9618 41.901 15.2851C41.9653 15.6083 41.9323 15.9434 41.8062 16.2479C41.6801 16.5524 41.4665 16.8127 41.1925 16.9958C40.9185 17.1789 40.5963 17.2767 40.2667 17.2768Z" fill="#23AF6F"/>
<path d="M59.7885 14.4884C59.3465 14.4884 58.9225 14.3128 58.61 14.0002C58.2974 13.6876 58.1218 13.2637 58.1218 12.8217V10.0334C58.1218 9.59134 58.2974 9.16742 58.61 8.85485C58.9225 8.54229 59.3465 8.3667 59.7885 8.3667C60.2305 8.3667 60.6544 8.54229 60.967 8.85485C61.2796 9.16742 61.4552 9.59134 61.4552 10.0334V12.8217C61.4552 13.2637 61.2796 13.6876 60.967 14.0002C60.6544 14.3128 60.2305 14.4884 59.7885 14.4884Z" fill="#D3374E"/>
<path d="M62.5785 25.6451H59.7885C59.3465 25.6451 58.9225 25.4695 58.61 25.1569C58.2974 24.8444 58.1218 24.4205 58.1218 23.9784C58.1218 23.5364 58.2974 23.1125 58.61 22.7999C58.9225 22.4874 59.3465 22.3118 59.7885 22.3118H62.5785C63.0205 22.3118 63.4444 22.4874 63.757 22.7999C64.0696 23.1125 64.2452 23.5364 64.2452 23.9784C64.2452 24.4205 64.0696 24.8444 63.757 25.1569C63.4444 25.4695 63.0205 25.6451 62.5785 25.6451Z" fill="#23AF6F"/>
<path d="M68.1551 59.1117C67.8255 59.1116 67.5033 59.0138 67.2293 58.8307C66.9553 58.6475 66.7417 58.3873 66.6156 58.0828C66.4895 57.7783 66.4565 57.4432 66.5208 57.12C66.5851 56.7967 66.7437 56.4998 66.9768 56.2667C70.5843 52.495 75.334 50.0168 80.4914 49.2154C85.6487 48.4141 90.9264 49.3341 95.5084 51.8333C95.8725 52.0674 96.1313 52.434 96.2299 52.8554C96.3286 53.2769 96.2594 53.7202 96.037 54.0916C95.8146 54.4629 95.4565 54.7332 95.0384 54.8452C94.6203 54.9572 94.175 54.9021 93.7967 54.6917C89.8654 52.522 85.3211 51.7304 80.8877 52.4429C76.4543 53.1555 72.3869 55.3311 69.3334 58.6233C69.0209 58.9359 68.5971 59.1116 68.1551 59.1117Z" fill="#2167D8"/>
<path d="M87.6784 64.6883C87.2366 64.6887 86.8128 64.5137 86.5 64.2017L83.71 61.4117C83.4064 61.0973 83.2385 60.6763 83.2423 60.2393C83.246 59.8024 83.4213 59.3843 83.7303 59.0753C84.0394 58.7663 84.4574 58.591 84.8944 58.5872C85.3314 58.5834 85.7524 58.7514 86.0667 59.055L88.8567 61.8433C89.0897 62.0764 89.2484 62.3734 89.3127 62.6966C89.377 63.0199 89.344 63.3549 89.2178 63.6594C89.0917 63.9639 88.8782 64.2242 88.6041 64.4073C88.3301 64.5905 88.008 64.6883 87.6784 64.6883Z" fill="#23AF6F"/>
<path d="M90.465 42.3785H87.6783C87.2363 42.3785 86.8124 42.2029 86.4998 41.8903C86.1872 41.5777 86.0116 41.1538 86.0116 40.7118C86.0116 40.2698 86.1872 39.8458 86.4998 39.5333C86.8124 39.2207 87.2363 39.0451 87.6783 39.0451H90.465C90.907 39.0451 91.3309 39.2207 91.6435 39.5333C91.9561 39.8458 92.1316 40.2698 92.1316 40.7118C92.1316 41.1538 91.9561 41.5777 91.6435 41.8903C91.3309 42.2029 90.907 42.3785 90.465 42.3785ZM76.5216 42.3785C76.0796 42.3785 75.6557 42.2029 75.3431 41.8903C75.0306 41.5777 74.855 41.1538 74.855 40.7118V37.9218C74.855 37.4798 75.0306 37.0558 75.3431 36.7433C75.6557 36.4307 76.0796 36.2551 76.5216 36.2551C76.9637 36.2551 77.3876 36.4307 77.7002 36.7433C78.0127 37.0558 78.1883 37.4798 78.1883 37.9218V40.7118C78.1883 41.1538 78.0127 41.5777 77.7002 41.8903C77.3876 42.2029 76.9637 42.3785 76.5216 42.3785Z" fill="#D3374E"/>
<path d="M62.5784 36.8C62.2488 36.7999 61.9267 36.7021 61.6527 36.519C61.3786 36.3358 61.1651 36.0756 61.039 35.7711C60.9128 35.4666 60.8798 35.1315 60.9441 34.8082C61.0084 34.485 61.1671 34.188 61.4001 33.955C62.1039 33.272 62.9478 32.7501 63.8733 32.4255C64.7988 32.1009 65.7838 31.9813 66.7601 32.075H66.7968C67.3272 32.1622 67.8705 32.1261 68.3847 31.9694C68.8989 31.8127 69.3701 31.5398 69.7618 31.1716C70.133 30.7748 70.4076 30.2976 70.5643 29.7773C70.721 29.2569 70.7555 28.7075 70.6651 28.1716C70.5574 27.194 70.6706 26.2047 70.9965 25.2767C71.3224 24.3487 71.8525 23.5058 72.5478 22.8102C73.2431 22.1146 74.0858 21.584 75.0137 21.2577C75.9415 20.9314 76.9308 20.8177 77.9084 20.925C78.447 21.0332 79.004 21.0068 79.5298 20.8478C80.0556 20.6889 80.5341 20.4025 80.9225 20.0141C81.311 19.6256 81.5974 19.1472 81.7563 18.6213C81.9152 18.0955 81.9417 17.5385 81.8334 17C81.7406 16.0228 81.861 15.0372 82.1865 14.1111C82.5119 13.1851 83.0346 12.3408 83.7184 11.6366C83.8718 11.4743 84.0562 11.3445 84.2607 11.2548C84.4652 11.1651 84.6856 11.1175 84.9089 11.1146C85.1322 11.1118 85.3538 11.1539 85.5605 11.2384C85.7672 11.3229 85.9548 11.448 86.1122 11.6064C86.2696 11.7648 86.3936 11.9532 86.4767 12.1605C86.5599 12.3677 86.6006 12.5896 86.5963 12.8128C86.5921 13.0361 86.543 13.2562 86.452 13.4601C86.3611 13.6641 86.23 13.8476 86.0668 14C85.6956 14.397 85.4207 14.874 85.2632 15.3942C85.1057 15.9143 85.0698 16.4637 85.1584 17C85.2659 17.978 85.1523 18.9678 84.8261 19.8961C84.4998 20.8244 83.9692 21.6675 83.2734 22.3633C82.5777 23.0591 81.7345 23.5897 80.8062 23.9159C79.8779 24.2422 78.8882 24.3558 77.9101 24.2483C77.3728 24.1402 76.8171 24.1668 76.2926 24.3256C75.7681 24.4844 75.291 24.7705 74.9039 25.1585C74.5168 25.5464 74.2316 26.0241 74.074 26.549C73.9163 27.0738 73.8909 27.6296 74.0001 28.1666C74.0946 29.143 73.9753 30.1282 73.6507 31.0538C73.326 31.9794 72.8037 32.8232 72.1201 33.5266C71.4134 34.2056 70.5691 34.7248 69.6444 35.0492C68.7197 35.3735 67.736 35.4954 66.7601 35.4066H66.7218C66.1916 35.3189 65.6484 35.3548 65.1344 35.5115C64.6204 35.6682 64.1495 35.9414 63.7584 36.31C63.6036 36.4652 63.4197 36.5884 63.2172 36.6725C63.0148 36.7566 62.7977 36.7999 62.5784 36.8Z" fill="#FDC70E"/>
<path d="M68.1567 17.2767C67.8828 17.2768 67.6131 17.2094 67.3715 17.0805C67.1298 16.9516 66.9237 16.7651 66.7713 16.5375C66.6188 16.31 66.5249 16.0484 66.4976 15.7758C66.4704 15.5033 66.5107 15.2282 66.615 14.975C67.5003 13.0078 67.9638 10.8771 67.9759 8.71993C67.988 6.56277 67.5482 4.42698 66.685 2.45002C66.4764 2.06015 66.4312 1.60337 66.5593 1.18016C66.6875 0.756956 66.9785 0.40199 67.3684 0.193353C67.7583 -0.015284 68.215 -0.0605012 68.6382 0.0676487C69.0615 0.195799 69.4164 0.486818 69.625 0.876686C70.7196 3.28851 71.292 5.90447 71.3046 8.55301C71.3173 11.2016 70.7699 13.8229 69.6984 16.245C69.5726 16.5504 69.3588 16.8115 69.0843 16.9952C68.8099 17.1788 68.487 17.2768 68.1567 17.2767ZM84.8884 34.01C84.5022 34.0104 84.1279 33.8767 83.8294 33.6317C83.5309 33.3868 83.3267 33.0458 83.2517 32.6669C83.1767 32.2881 83.2356 31.895 83.4183 31.5548C83.601 31.2146 83.8962 30.9484 84.2534 30.8017C86.6755 29.729 89.2972 29.181 91.9462 29.1936C94.5952 29.2063 97.2116 29.7793 99.6234 30.875C100.013 31.0837 100.304 31.4386 100.432 31.8618C100.561 32.285 100.515 32.7418 100.307 33.1317C100.098 33.5216 99.7431 33.8126 99.3199 33.9407C98.8967 34.0689 98.4399 34.0237 98.0501 33.815C96.073 32.9511 93.9369 32.511 91.7793 32.523C89.6218 32.5351 87.4907 32.999 85.5234 33.885C85.3218 33.9675 85.1062 34.01 84.8884 34.01Z" fill="#D3374E"/>
</g>
<defs>
<clipPath id="clip0_1166_7309">
<rect width="100" height="100" fill="white" transform="translate(0.5)"/>
</clipPath>
</defs>
</svg>
