<svg width="55" height="40" viewBox="0 0 55 40" fill="none"
    xmlns="http://www.w3.org/2000/svg">
    <path d="M15.0015 39.96C11.587 39.7392 8.34263 38.6156 5.73167 36.7496C3.12071 34.8835 1.27664 32.3705 0.462781 29.5693C-0.351082 26.7681 -0.0931255 23.822 1.19982 21.1516C2.49276 18.4812 4.75457 16.2232 7.6623 14.6998C8.28101 10.6373 10.6365 6.90385 14.2878 4.19817C17.9392 1.49249 22.6363 0 27.5 0C32.3637 0 37.0608 1.49249 40.7122 4.19817C44.3636 6.90385 46.719 10.6373 47.3377 14.6998C50.2454 16.2232 52.5072 18.4812 53.8002 21.1516C55.0931 23.822 55.3511 26.7681 54.5372 29.5693C53.7234 32.3705 51.8793 34.8835 49.2683 36.7496C46.6574 38.6156 43.413 39.7392 39.9986 39.96V40H15.0015V39.96ZM29.9997 23.1599H37.4988L27.5 12.6348L17.5012 23.1599H25.0003V31.5799H29.9997V23.1599Z" fill="#68696B"/>
</svg>
