<svg width="23" height="24" viewBox="0 0 23 24" fill="none"
    xmlns="http://www.w3.org/2000/svg">
    <path d="M22.868 12.2801C22.868 11.4922 22.7918 10.6788 22.6647 9.91632H11.6592V14.4151H17.9626C17.7084 15.8639 16.8696 17.1347 15.6242 17.9481L19.3859 20.871C21.5972 18.8122 22.868 15.813 22.868 12.2801Z" fill="#2A60A3"/>
    <path d="M11.6602 23.667C14.8119 23.667 17.4552 22.6249 19.3869 20.8457L15.6252 17.9482C14.5831 18.6599 13.236 19.0666 11.6602 19.0666C8.61016 19.0666 6.04305 17.0078 5.10263 14.2628L1.23926 17.2365C3.22178 21.1762 7.23765 23.667 11.6602 23.667Z" fill="#57C25E"/>
    <path d="M5.10244 14.2359C4.61952 12.7871 4.61952 11.2113 5.10244 9.7625L1.23907 6.76331C-0.413025 10.0675 -0.413025 13.9563 1.23907 17.2351L5.10244 14.2359Z" fill="#FFB037"/>
    <path d="M11.6602 4.95963C13.3123 4.93422 14.939 5.56964 16.1336 6.7134L19.4632 3.35837C17.3536 1.37585 14.5577 0.30834 11.6602 0.333757C7.23765 0.333757 3.22178 2.82461 1.23926 6.76424L5.10263 9.76343C6.04305 6.99299 8.61016 4.95963 11.6602 4.95963Z" fill="#FA3E22"/>
</svg>
