<svg width="18" height="18" viewBox="0 0 18 18" fill="none"
    xmlns="http://www.w3.org/2000/svg">
    <path d="M10.3794 10.7195C10.4176 10.7195 10.4502 10.7265 10.4775 10.742C10.5045 10.7569 10.5321 10.7732 10.5605 10.7904C10.5886 10.8075 10.6193 10.8233 10.6522 10.8387C10.6854 10.8536 10.7264 10.8612 10.7745 10.8612C10.8308 10.8612 10.8786 10.841 10.918 10.8008C10.9573 10.7606 10.9767 10.7133 10.9767 10.659C10.9768 10.6112 10.9615 10.5645 10.9332 10.526C10.9039 10.4858 10.8631 10.4512 10.8108 10.4222C10.7585 10.3932 10.6958 10.3699 10.6224 10.353C10.5428 10.3349 10.4613 10.3262 10.3797 10.3271C10.2829 10.3271 10.1994 10.3404 10.1291 10.3662C10.0587 10.3927 9.99996 10.429 9.95271 10.4751C9.90546 10.5212 9.87059 10.5755 9.84865 10.6376C9.8259 10.7037 9.81468 10.7731 9.81547 10.843C9.81547 10.9375 9.83487 11.0137 9.87425 11.0719C9.91362 11.1301 9.96228 11.1779 10.0208 11.2153C10.079 11.2527 10.1431 11.2811 10.2123 11.3011C10.2818 11.3214 10.3456 11.3408 10.4038 11.3588C10.4623 11.3768 10.511 11.3973 10.5504 11.4204C10.5897 11.4434 10.6092 11.4741 10.6092 11.5126C10.6092 11.5528 10.5903 11.5812 10.5521 11.5984C10.5151 11.6153 10.4749 11.6241 10.4342 11.6243C10.3884 11.6243 10.3436 11.61 10.3062 11.5835C10.2666 11.5557 10.2283 11.526 10.1915 11.4946C10.1547 11.4625 10.1159 11.4328 10.0753 11.4057C10.0384 11.3794 9.99416 11.3651 9.94878 11.365C9.87846 11.365 9.82278 11.3841 9.78143 11.4237C9.74037 11.4628 9.71956 11.5227 9.71956 11.6035C9.71956 11.6693 9.74318 11.7297 9.79043 11.7843C9.83768 11.8389 9.89646 11.8858 9.96678 11.9261C10.0371 11.9663 10.1127 11.9975 10.1932 12.0194C10.2733 12.0419 10.347 12.0529 10.4131 12.0529C10.5057 12.0529 10.5928 12.0408 10.6741 12.0166C10.7557 11.9924 10.8277 11.9567 10.8901 11.9095C10.9523 11.8622 11.0015 11.8029 11.0378 11.7314C11.0738 11.66 11.0918 11.5759 11.0918 11.4794C11.0918 11.379 11.0724 11.298 11.033 11.2367C10.9958 11.1777 10.9458 11.1277 10.8867 11.0905C10.8282 11.0542 10.765 11.0266 10.6966 11.0075C10.6283 10.9884 10.5647 10.9701 10.5065 10.9532C10.4553 10.9393 10.4061 10.919 10.36 10.8927C10.3414 10.8827 10.3261 10.8676 10.3157 10.8493C10.3053 10.8309 10.3003 10.81 10.3012 10.789C10.3012 10.767 10.3088 10.7499 10.3237 10.7378C10.3386 10.7257 10.3572 10.7195 10.3794 10.7195ZM9.33537 10.5839C9.26112 10.5091 9.17759 10.4509 9.08506 10.4087C8.99253 10.3665 8.89915 10.3454 8.80465 10.3454C8.73209 10.3454 8.66993 10.353 8.61762 10.3696C8.56503 10.3856 8.52143 10.4031 8.48628 10.4225C8.45112 10.4419 8.42328 10.4593 8.40331 10.4754C8.38334 10.4914 8.36815 10.4996 8.35803 10.4996C8.34593 10.4996 8.34003 10.4782 8.34003 10.4363V10.0046C8.34028 9.97363 8.33415 9.94299 8.32203 9.91455C8.3106 9.88648 8.29363 9.861 8.27212 9.83964C8.25062 9.81828 8.22502 9.80148 8.19687 9.79024C8.16771 9.77821 8.13645 9.77209 8.1049 9.77224C8.07429 9.77181 8.04392 9.77762 8.01563 9.78933C7.98734 9.80103 7.96173 9.81837 7.94037 9.8403C7.91846 9.8616 7.90114 9.88717 7.88949 9.91541C7.87783 9.94366 7.87208 9.974 7.87259 10.0046V11.7992C7.87222 11.8618 7.89657 11.9221 7.94037 11.9668C7.96192 11.9885 7.98756 12.0057 8.0158 12.0174C8.04405 12.0291 8.07434 12.035 8.1049 12.0349C8.16115 12.0349 8.20981 12.0169 8.25115 11.9806C8.2925 11.9443 8.31809 11.9052 8.32793 11.8631C8.33384 11.867 8.34818 11.878 8.37012 11.896C8.39234 11.914 8.423 11.9339 8.46209 11.9547C8.50146 11.9761 8.54928 11.995 8.60553 12.0107C8.66178 12.0265 8.72815 12.0349 8.80465 12.0349C8.89915 12.0349 8.99253 12.0135 9.08506 11.9711C9.17875 11.9284 9.26364 11.8686 9.33537 11.7947C9.4099 11.7193 9.46981 11.6305 9.51509 11.5278C9.56037 11.4257 9.58287 11.3129 9.58287 11.19C9.58378 11.0776 9.56237 10.9662 9.51988 10.8622C9.4774 10.7581 9.41468 10.6635 9.33537 10.5839ZM9.08534 11.3425C9.04659 11.4355 8.97286 11.5096 8.88003 11.5489C8.83201 11.569 8.78048 11.5793 8.72843 11.5793C8.67639 11.5793 8.62486 11.569 8.57684 11.5489C8.48385 11.5095 8.40983 11.4354 8.3704 11.3425C8.35043 11.2952 8.34031 11.244 8.34031 11.1897C8.34001 11.1386 8.34987 11.0879 8.36931 11.0406C8.38876 10.9933 8.4174 10.9503 8.45359 10.9141C8.48977 10.878 8.53277 10.8494 8.58009 10.8299C8.62742 10.8105 8.67813 10.8007 8.72928 10.8011C8.78356 10.8011 8.8339 10.8109 8.88003 10.8311C8.95019 10.8611 9.00994 10.9112 9.05182 10.9749C9.09369 11.0387 9.11582 11.1134 9.11543 11.1897C9.11543 11.244 9.10531 11.2952 9.08534 11.3425Z" fill="#2A9BCE"/>
    <path d="M9.97584 6.20164L9.80132 5.49473C10.0697 5.35363 10.2944 5.14196 10.4513 4.88253C10.6081 4.62311 10.6912 4.32579 10.6915 4.02263L9.97584 6.20164ZM9.97584 6.20164H11.0727C11.9154 6.20164 12.7882 6.89146 12.9829 7.71131M9.97584 6.20164L12.9829 7.71131M8.25263 5.4948L8.07797 6.20164H6.98138C6.13868 6.20164 5.26591 6.89146 5.0712 7.71131C5.0712 7.71132 5.0712 7.71132 5.0712 7.71132L3.50548 14.3049L3.50548 14.3049C3.41178 14.6995 3.49685 15.0287 3.67617 15.2556C3.85549 15.4825 4.15621 15.6413 4.56178 15.6413H13.492H13.4921C13.8978 15.6414 14.1986 15.4826 14.3779 15.2558C14.5572 15.029 14.6423 14.6997 14.5486 14.3049L14.5486 14.3049M8.25263 5.4948L14.9135 14.2183L14.5486 14.3049M8.25263 5.4948C7.98436 5.3536 7.7597 5.14188 7.60285 4.88244C7.44607 4.62311 7.363 4.32593 7.36256 4.02289C7.36261 3.10561 8.10961 2.35864 9.02691 2.35864C9.94418 2.35864 10.6913 3.10551 10.6915 4.0226L8.25263 5.4948ZM14.5486 14.3049L12.9829 7.71132M14.5486 14.3049L12.9829 7.71132M12.9829 7.71132C12.9829 7.71132 12.9829 7.71132 12.9829 7.71131M12.9829 7.71132L12.9829 7.71131M10.3165 4.02271C10.3165 3.31117 9.73814 2.73336 9.02691 2.73336C8.31588 2.73336 7.73756 3.31124 7.73756 4.02271C7.73756 4.73417 8.31588 5.31205 9.02691 5.31205C9.73814 5.31205 10.3165 4.73424 10.3165 4.02271ZM5.92069 10.9215C5.92069 12.6372 7.31146 14.028 9.02719 14.028C10.7426 14.028 12.1337 12.6372 12.1337 10.9215C12.1337 9.20576 10.7429 7.81499 9.02719 7.81499C7.31146 7.81499 5.92069 9.20576 5.92069 10.9215Z" stroke="#2A9BCE" stroke-width="0.75"/>
    <path d="M7.52762 9.84006C7.50563 9.81819 7.47951 9.80091 7.45078 9.78923C7.42205 9.77754 7.39129 9.77168 7.36027 9.77199C7.32966 9.77157 7.29929 9.77738 7.271 9.78908C7.24271 9.80078 7.2171 9.81813 7.19574 9.84006C7.17383 9.86136 7.15652 9.88692 7.14486 9.91517C7.1332 9.94342 7.12745 9.97375 7.12796 10.0043V11.799C7.12759 11.8616 7.15195 11.9218 7.19574 11.9666C7.21729 11.9883 7.24293 12.0055 7.27117 12.0171C7.29942 12.0288 7.32971 12.0348 7.36027 12.0347C7.39124 12.0351 7.42196 12.0291 7.45051 12.0171C7.47906 12.0051 7.50483 11.9873 7.52621 11.9649C7.5485 11.9435 7.56615 11.9177 7.57805 11.8891C7.58995 11.8606 7.59586 11.8299 7.5954 11.799V10.0043C7.59565 9.97339 7.58953 9.94275 7.5774 9.91431C7.566 9.88644 7.54906 9.86118 7.52762 9.84006Z" fill="#2A9BCE"/>
</svg>
