<svg width="20" height="20" viewBox="0 0 20 20" fill="none" xmlns="http://www.w3.org/2000/svg">
<path d="M8.75 18.125H3.75V1.87501H12.1875V4.37501C12.1875 4.45789 12.2204 4.53737 12.279 4.59598C12.3376 4.65458 12.4171 4.68751 12.5 4.68751H15V12.1875C15 12.2704 15.0329 12.3499 15.0915 12.4085C15.1501 12.4671 15.2296 12.5 15.3125 12.5C15.3954 12.5 15.4749 12.4671 15.5335 12.4085C15.5921 12.3499 15.625 12.2704 15.625 12.1875V4.37501C15.6252 4.33388 15.6174 4.29311 15.6018 4.25503C15.5863 4.21696 15.5633 4.18233 15.5344 4.15313L12.7219 1.34063C12.6927 1.31167 12.658 1.28875 12.62 1.2732C12.5819 1.25765 12.5411 1.24977 12.5 1.25001H3.4375C3.35462 1.25001 3.27513 1.28293 3.21653 1.34153C3.15792 1.40014 3.125 1.47963 3.125 1.56251V18.4375C3.125 18.5204 3.15792 18.5999 3.21653 18.6585C3.27513 18.7171 3.35462 18.75 3.4375 18.75H8.75C8.83288 18.75 8.91237 18.7171 8.97097 18.6585C9.02958 18.5999 9.0625 18.5204 9.0625 18.4375C9.0625 18.3546 9.02958 18.2751 8.97097 18.2165C8.91237 18.1579 8.83288 18.125 8.75 18.125ZM12.8125 2.31563L14.5594 4.06251H12.8125V2.31563Z" fill="#58565E"/>
<path d="M16.5625 13.125H14.6187L14.0625 10.8625C14.0401 10.7849 13.9885 10.719 13.9185 10.6786C13.8485 10.6382 13.7656 10.6265 13.6872 10.6459C13.6088 10.6653 13.5409 10.7143 13.4979 10.7827C13.4548 10.851 13.4399 10.9334 13.4563 11.0125L13.975 13.125H11.65L12.1875 11.0125C12.1973 10.9715 12.199 10.9289 12.1924 10.8872C12.1858 10.8455 12.1711 10.8056 12.149 10.7696C12.1269 10.7336 12.098 10.7023 12.0639 10.6775C12.0297 10.6527 11.991 10.6349 11.95 10.625C11.909 10.6152 11.8664 10.6135 11.8247 10.6201C11.783 10.6267 11.743 10.6415 11.7071 10.6635C11.6711 10.6856 11.6398 10.7145 11.615 10.7486C11.5902 10.7828 11.5723 10.8215 11.5625 10.8625L11.0063 13.125H9.0625C8.97962 13.125 8.90013 13.1579 8.84153 13.2165C8.78292 13.2751 8.75 13.3546 8.75 13.4375V14.6875C8.75 14.7704 8.78292 14.8499 8.84153 14.9085C8.90013 14.9671 8.97962 15 9.0625 15H9.4L9.64063 17.8906C9.66026 18.1255 9.76764 18.3443 9.94137 18.5036C10.1151 18.6629 10.3424 18.7508 10.5781 18.75H15.05C15.2857 18.7508 15.513 18.6629 15.6868 18.5036C15.8605 18.3443 15.9679 18.1255 15.9875 17.8906L16.225 15H16.5625C16.6454 15 16.7249 14.9671 16.7835 14.9085C16.8421 14.8499 16.875 14.7704 16.875 14.6875V13.4375C16.875 13.3546 16.8421 13.2751 16.7835 13.2165C16.7249 13.1579 16.6454 13.125 16.5625 13.125ZM15.3625 17.8375C15.3562 17.916 15.3205 17.9892 15.2626 18.0425C15.2046 18.0958 15.1287 18.1253 15.05 18.125H10.575C10.4963 18.1253 10.4204 18.0958 10.3624 18.0425C10.3045 17.9892 10.2688 17.916 10.2625 17.8375L10.0281 15H15.5969L15.3625 17.8375ZM16.25 14.375H9.375V13.75H16.25V14.375Z" fill="#58565E"/>
<path d="M11.5625 17.5C11.6454 17.5 11.7249 17.4671 11.7835 17.4085C11.8421 17.3499 11.875 17.2704 11.875 17.1875V15.9375C11.875 15.8546 11.8421 15.7751 11.7835 15.7165C11.7249 15.6579 11.6454 15.625 11.5625 15.625C11.4796 15.625 11.4001 15.6579 11.3415 15.7165C11.2829 15.7751 11.25 15.8546 11.25 15.9375V17.1875C11.25 17.2704 11.2829 17.3499 11.3415 17.4085C11.4001 17.4671 11.4796 17.5 11.5625 17.5ZM14.0625 17.5C14.1454 17.5 14.2249 17.4671 14.2835 17.4085C14.3421 17.3499 14.375 17.2704 14.375 17.1875V15.9375C14.375 15.8546 14.3421 15.7751 14.2835 15.7165C14.2249 15.6579 14.1454 15.625 14.0625 15.625C13.9796 15.625 13.9001 15.6579 13.8415 15.7165C13.7829 15.7751 13.75 15.8546 13.75 15.9375V17.1875C13.75 17.2704 13.7829 17.3499 13.8415 17.4085C13.9001 17.4671 13.9796 17.5 14.0625 17.5ZM12.8125 17.5C12.8954 17.5 12.9749 17.4671 13.0335 17.4085C13.0921 17.3499 13.125 17.2704 13.125 17.1875V15.9375C13.125 15.8546 13.0921 15.7751 13.0335 15.7165C12.9749 15.6579 12.8954 15.625 12.8125 15.625C12.7296 15.625 12.6501 15.6579 12.5915 15.7165C12.5329 15.7751 12.5 15.8546 12.5 15.9375V17.1875C12.5 17.2704 12.5329 17.3499 12.5915 17.4085C12.6501 17.4671 12.7296 17.5 12.8125 17.5ZM7.5 5C7.5 4.91712 7.46708 4.83763 7.40847 4.77903C7.34987 4.72042 7.27038 4.6875 7.1875 4.6875H5.3125C5.22962 4.6875 5.15013 4.72042 5.09153 4.77903C5.03292 4.83763 5 4.91712 5 5V6.875C5 6.95788 5.03292 7.03737 5.09153 7.09597C5.15013 7.15458 5.22962 7.1875 5.3125 7.1875H7.1875C7.27038 7.1875 7.34987 7.15458 7.40847 7.09597C7.46708 7.03737 7.5 6.95788 7.5 6.875V5ZM6.875 6.5625H5.625V5.3125H6.875V6.5625ZM8.4375 5.625H10.9375C11.0204 5.625 11.0999 5.59208 11.1585 5.53347C11.2171 5.47487 11.25 5.39538 11.25 5.3125C11.25 5.22962 11.2171 5.15013 11.1585 5.09153C11.0999 5.03292 11.0204 5 10.9375 5H8.4375C8.35462 5 8.27513 5.03292 8.21653 5.09153C8.15792 5.15013 8.125 5.22962 8.125 5.3125C8.125 5.39538 8.15792 5.47487 8.21653 5.53347C8.27513 5.59208 8.35462 5.625 8.4375 5.625ZM13.75 6.5625C13.75 6.47962 13.7171 6.40013 13.6585 6.34153C13.5999 6.28292 13.5204 6.25 13.4375 6.25H8.4375C8.35462 6.25 8.27513 6.28292 8.21653 6.34153C8.15792 6.40013 8.125 6.47962 8.125 6.5625C8.125 6.64538 8.15792 6.72487 8.21653 6.78347C8.27513 6.84208 8.35462 6.875 8.4375 6.875H13.4375C13.5204 6.875 13.5999 6.84208 13.6585 6.78347C13.7171 6.72487 13.75 6.64538 13.75 6.5625ZM7.5 9.0625C7.5 8.97962 7.46708 8.90013 7.40847 8.84153C7.34987 8.78292 7.27038 8.75 7.1875 8.75H5.3125C5.22962 8.75 5.15013 8.78292 5.09153 8.84153C5.03292 8.90013 5 8.97962 5 9.0625V10.9375C5 11.0204 5.03292 11.0999 5.09153 11.1585C5.15013 11.2171 5.22962 11.25 5.3125 11.25H7.1875C7.27038 11.25 7.34987 11.2171 7.40847 11.1585C7.46708 11.0999 7.5 11.0204 7.5 10.9375V9.0625ZM6.875 10.625H5.625V9.375H6.875V10.625ZM11.25 9.375C11.25 9.29212 11.2171 9.21263 11.1585 9.15403C11.0999 9.09542 11.0204 9.0625 10.9375 9.0625H8.4375C8.35462 9.0625 8.27513 9.09542 8.21653 9.15403C8.15792 9.21263 8.125 9.29212 8.125 9.375C8.125 9.45788 8.15792 9.53737 8.21653 9.59597C8.27513 9.65458 8.35462 9.6875 8.4375 9.6875H10.9375C11.0204 9.6875 11.0999 9.65458 11.1585 9.59597C11.2171 9.53737 11.25 9.45788 11.25 9.375ZM8.4375 10.3125C8.35462 10.3125 8.27513 10.3454 8.21653 10.404C8.15792 10.4626 8.125 10.5421 8.125 10.625C8.125 10.7079 8.15792 10.7874 8.21653 10.846C8.27513 10.9046 8.35462 10.9375 8.4375 10.9375H10.625C10.7079 10.9375 10.7874 10.9046 10.846 10.846C10.9046 10.7874 10.9375 10.7079 10.9375 10.625C10.9375 10.5421 10.9046 10.4626 10.846 10.404C10.7874 10.3454 10.7079 10.3125 10.625 10.3125H8.4375ZM7.1875 12.8125H5.3125C5.22962 12.8125 5.15013 12.8454 5.09153 12.904C5.03292 12.9626 5 13.0421 5 13.125V15C5 15.0829 5.03292 15.1624 5.09153 15.221C5.15013 15.2796 5.22962 15.3125 5.3125 15.3125H7.1875C7.27038 15.3125 7.34987 15.2796 7.40847 15.221C7.46708 15.1624 7.5 15.0829 7.5 15V13.125C7.5 13.0421 7.46708 12.9626 7.40847 12.904C7.34987 12.8454 7.27038 12.8125 7.1875 12.8125ZM6.875 14.6875H5.625V13.4375H6.875V14.6875Z" fill="#58565E"/>
</svg>
