<svg width="20" height="21" viewBox="0 0 20 21" fill="none"
    xmlns="http://www.w3.org/2000/svg">
    <path d="M10 1.08813C7.05882 1.08813 4.70588 3.44108 4.70588 6.38225V8.73519C3.70588 8.73519 2.94118 9.4999 2.94118 10.4999V18.147C2.94118 19.147 3.70588 19.9117 4.70588 19.9117H15.2941C16.2941 19.9117 17.0588 19.147 17.0588 18.147V10.4999C17.0588 9.4999 16.2941 8.73519 15.2941 8.73519V6.38225C15.2941 3.44108 12.9412 1.08813 10 1.08813ZM15.8824 10.4999V18.147C15.8824 18.4999 15.6471 18.7352 15.2941 18.7352H4.70588C4.35294 18.7352 4.11765 18.4999 4.11765 18.147V10.4999C4.11765 10.147 4.35294 9.91166 4.70588 9.91166H5.29412H14.7059H15.2941C15.6471 9.91166 15.8824 10.147 15.8824 10.4999ZM5.88235 8.73519V6.38225C5.88235 4.08813 7.70588 2.26461 10 2.26461C12.2941 2.26461 14.1176 4.08813 14.1176 6.38225V8.73519H5.88235Z" fill="#68696B"/>
    <path d="M10 11.6763C9 11.6763 8.23529 12.441 8.23529 13.441C8.23529 14.2057 8.70588 14.8527 9.41176 15.088V16.3822C9.41176 16.7351 9.64706 16.9704 10 16.9704C10.3529 16.9704 10.5882 16.7351 10.5882 16.3822V15.088C11.2941 14.8527 11.7647 14.2057 11.7647 13.441C11.7647 12.441 11 11.6763 10 11.6763ZM10 14.0292C9.64706 14.0292 9.41176 13.7939 9.41176 13.441C9.41176 13.088 9.64706 12.8527 10 12.8527C10.3529 12.8527 10.5882 13.088 10.5882 13.441C10.5882 13.7939 10.3529 14.0292 10 14.0292Z" fill="#68696B"/>
</svg>
