<svg width="25" height="24" viewBox="0 0 25 24" fill="none"
    xmlns="http://www.w3.org/2000/svg">
    <path d="M22.1601 10.44L21.1801 14.62C20.3401 18.23 18.6801 19.69 15.5601 19.39C15.0601 19.35 14.5201 19.26 13.9401 19.12L12.2601 18.72C8.09006 17.73 6.80006 15.67 7.78006 11.49L8.76006 7.30001C8.96006 6.45001 9.20006 5.71001 9.50006 5.10001C10.6701 2.68001 12.6601 2.03001 16.0001 2.82001L17.6701 3.21001C21.8601 4.19001 23.1401 6.26001 22.1601 10.44Z" stroke="#58565E" stroke-width="1.5" stroke-linecap="round" stroke-linejoin="round"/>
    <path d="M15.56 19.3901C14.94 19.8101 14.16 20.1601 13.21 20.4701L11.63 20.9901C7.65998 22.2701 5.56997 21.2001 4.27997 17.2301L2.99997 13.2801C1.71997 9.3101 2.77997 7.2101 6.74997 5.9301L8.32997 5.4101C8.73997 5.2801 9.12997 5.1701 9.49997 5.1001C9.19997 5.7101 8.95997 6.4501 8.75997 7.3001L7.77997 11.4901C6.79997 15.6701 8.08998 17.7301 12.26 18.7201L13.94 19.1201C14.52 19.2601 15.06 19.3501 15.56 19.3901Z" stroke="#58565E" stroke-width="1.5" stroke-linecap="round" stroke-linejoin="round"/>
    <path d="M13.14 8.53003L17.99 9.76003" stroke="#7D7C81" stroke-width="1.5" stroke-linecap="round" stroke-linejoin="round"/>
    <path d="M12.16 12.3999L15.06 13.1399" stroke="#7D7C81" stroke-width="1.5" stroke-linecap="round" stroke-linejoin="round"/>
</svg>
