<svg xmlns="http://www.w3.org/2000/svg" version="1.1" xmlns:xlink="http://www.w3.org/1999/xlink"
    width="512" height="512" x="0" y="0" viewBox="0 0 512 512"
    style="enable-background:new 0 0 512 512" xml:space="preserve" class=""><g><g fill-rule="evenodd"><path fill="#d3dde6" d="M25.266 480.556a20.715 20.715 0 0 0 20.662 20.632h322.2a20.708 20.708 0 0 0 20.632-20.632V20.662A20.715 20.715 0 0 0 368.125 0H127.09L25.266 101.823z" opacity="1" data-original="#d3dde6" class=""></path><path fill="#3a6584" d="M127.09 0 25.266 101.823H127.09z" opacity="1" data-original="#3a6584" class=""></path><path fill="#f7e8d7" d="M297.95 232.817h159.2c10.375 45.9-3.351 87.69-38.176 122.485 34.825 34.767 48.551 76.557 38.176 122.456h-159.2c-10.374-45.9 3.323-87.689 38.177-122.456-34.854-34.8-48.551-76.585-38.177-122.485z" opacity="1" data-original="#f7e8d7"></path><path fill="#ffba57" d="M326.6 304.886c10.11 21.014 25 34.414 41.03 50.414-29.609 29.521-53.739 54.088-50.562 100.22h120.94c3.206-46.132-20.953-70.7-50.533-100.22 16-16 30.92-29.4 41-50.416z" opacity="1" data-original="#ffba57"></path><path fill="#e2aa73" d="M285.478 477.758h184.149a17.177 17.177 0 0 1 17.107 17.135A17.171 17.171 0 0 1 469.627 512H285.478a17.17 17.17 0 0 1-17.107-17.107 17.176 17.176 0 0 1 17.107-17.135zm0-279.183h184.149a17.171 17.171 0 0 1 17.107 17.107v.029a17.17 17.17 0 0 1-17.107 17.106H285.478a17.169 17.169 0 0 1-17.107-17.106v-.029a17.17 17.17 0 0 1 17.107-17.107z" opacity="1" data-original="#e2aa73" class=""></path></g><path fill="#3a6584" d="M168.267 60.412a7.2 7.2 0 0 1 0-14.4h31.445a7.2 7.2 0 1 1 0 14.4zm55.633 0a7.2 7.2 0 0 1 0-14.4h122.864a7.2 7.2 0 0 1 0 14.4zM68.805 455.2a7.2 7.2 0 0 1 0-14.4h41.324a7.2 7.2 0 0 1 0 14.4zm65.541 0a7.2 7.2 0 0 1 0-14.4h124.146a7.2 7.2 0 0 1 0 14.4zm-65.541-49.365a7.2 7.2 0 0 1 0-14.4h189.687a7.2 7.2 0 0 1 0 14.4zm0-49.338a7.2 7.2 0 0 1 0-14.4h41.324a7.2 7.2 0 0 1 0 14.4zm65.541 0a7.2 7.2 0 0 1 0-14.4h124.146a7.2 7.2 0 1 1 0 14.4zm-65.541-49.338a7.2 7.2 0 0 1 0-14.4h189.687a7.2 7.2 0 0 1 0 14.4zm0-49.367a7.2 7.2 0 0 1 0-14.4h41.324a7.2 7.2 0 1 1 0 14.4zm65.541 0a7.2 7.2 0 0 1 0-14.4h105.641a7.2 7.2 0 1 1 0 14.4zm-65.541-49.337a7.2 7.2 0 0 1 0-14.4h171.182a7.2 7.2 0 0 1 0 14.4zm0-49.338a7.2 7.2 0 0 1 0-14.4h41.324a7.2 7.2 0 0 1 0 14.4zm65.541 0a7.2 7.2 0 0 1 0-14.4h212.418a7.2 7.2 0 0 1 0 14.4zm33.921-49.367a7.2 7.2 0 0 1 0-14.4h178.5a7.2 7.2 0 0 1 0 14.4z" opacity="1" data-original="#3a6584" class=""></path><path fill="#bec7cf" fill-rule="evenodd" d="M369.494 20.662v177.913h19.263V20.662A20.715 20.715 0 0 0 368.125 0h-19.292a20.721 20.721 0 0 1 20.661 20.662z" opacity="1" data-original="#bec7cf" class=""></path><path fill="#b78a5e" fill-rule="evenodd" d="M457.154 477.758h-21.419a188.632 188.632 0 0 1 .641 34.242h33.251a17.121 17.121 0 0 0 0-34.242zm-21.419-244.941h33.892a17.121 17.121 0 0 0 0-34.242h-33.251a188.63 188.63 0 0 1-.641 34.242z" opacity="1" data-original="#b78a5e"></path><path fill="#ded1c2" fill-rule="evenodd" d="M435.735 477.758h21.419c10.375-45.9-3.351-87.689-38.176-122.456 34.825-34.8 48.551-76.585 38.176-122.485h-21.419a186.16 186.16 0 0 1-23.722 72.069h16.465c-9.821 20.429-24.188 33.689-39.721 49.1-.407.437-.845.874-1.282 1.311.437.408.875.846 1.282 1.283 29 28.967 52.4 53.476 49.251 98.937h-6.149a183.839 183.839 0 0 1 3.876 22.236z" opacity="1" data-original="#ded1c2"></path><path fill="#eb9c2c" fill-rule="evenodd" d="M431.859 455.522h6.149c3.147-45.461-20.254-69.97-49.251-98.937a26.291 26.291 0 0 0-1.282-1.283c.437-.437.875-.874 1.282-1.311 15.533-15.416 29.9-28.676 39.721-49.1h-16.465a225.061 225.061 0 0 1-23.256 33.222q-7.342 8.743-15.765 17.194a262.071 262.071 0 0 1 15.765 17.165c21.507 25.645 36.02 53.476 43.1 83.055z" opacity="1" data-original="#eb9c2c"></path></g></svg>