<svg width="20" height="21" viewBox="0 0 20 21" fill="none"
    xmlns="http://www.w3.org/2000/svg">
    <path d="M11.8828 3.20629C12.5735 3.38453 13.2259 3.65816 13.825 4.01246C13.825 4.01246 14.1136 3.72375 14.4378 3.39957C14.6732 3.16395 14.9926 3.0318 15.3256 3.0318C15.6581 3.0318 15.9776 3.16395 16.213 3.39957C16.4985 3.68516 16.8149 4.00145 17.1004 4.28703C17.3361 4.52238 17.4682 4.84184 17.4682 5.17445C17.4682 5.50742 17.3361 5.82684 17.1004 6.06219C16.7762 6.38637 16.4875 6.67504 16.4875 6.67504C16.8418 7.2741 17.1154 7.92648 17.2937 8.61719H18.1588C18.852 8.61719 19.4141 9.17922 19.4141 9.87238V11.1276C19.4141 11.8208 18.852 12.3828 18.1588 12.3828H17.2937C17.1154 13.0735 16.8418 13.7259 16.4875 14.3249C16.4875 14.3249 16.7762 14.6136 17.1004 14.9378C17.3361 15.1732 17.4682 15.4926 17.4682 15.8255C17.4682 16.1582 17.3361 16.4776 17.1004 16.713C16.8149 16.9985 16.4985 17.3148 16.213 17.6004C15.9776 17.8361 15.6581 17.9682 15.3256 17.9682C14.9926 17.9682 14.6732 17.8361 14.4378 17.6004C14.1136 17.2762 13.825 16.9875 13.825 16.9875C13.2259 17.3418 12.5735 17.6155 11.8828 17.7937V18.6588C11.8828 19.352 11.3208 19.9141 10.6276 19.9141H9.37239C8.67919 19.9141 8.1172 19.352 8.1172 18.6588V17.7937C7.42653 17.6155 6.77411 17.3418 6.17505 16.9875C6.17505 16.9875 5.88637 17.2762 5.5622 17.6004C5.32684 17.8361 5.00739 17.9682 4.67446 17.9682C4.34184 17.9682 4.02235 17.8361 3.78704 17.6004C3.50149 17.3148 3.18516 16.9985 2.89958 16.713C2.66395 16.4776 2.5318 16.1582 2.5318 15.8255C2.5318 15.4926 2.66395 15.1732 2.89958 14.9378C3.22376 14.6136 3.51247 14.3249 3.51247 14.3249C3.15817 13.7259 2.88458 13.0735 2.7063 12.3828H1.84118C1.14798 12.3828 0.585945 11.8208 0.585945 11.1276V9.87238C0.585945 9.17922 1.14798 8.61719 1.84118 8.61719H2.7063C2.88458 7.92648 3.15817 7.2741 3.51247 6.67504C3.51247 6.67504 3.22376 6.38637 2.89958 6.06219C2.66395 5.82684 2.5318 5.50742 2.5318 5.17445C2.5318 4.84184 2.66395 4.52238 2.89958 4.28703C3.18516 4.00145 3.50149 3.68516 3.78704 3.39957C4.02235 3.16395 4.34184 3.0318 4.67446 3.0318C5.00739 3.0318 5.32684 3.16395 5.5622 3.39957C5.88637 3.72375 6.17505 4.01246 6.17505 4.01246C6.77411 3.65816 7.42653 3.38453 8.1172 3.20629V2.34113C8.1172 1.64793 8.67919 1.08594 9.37239 1.08594H10.6276C11.3208 1.08594 11.8828 1.64793 11.8828 2.34113V3.20629Z" stroke="#68696B" stroke-miterlimit="10" stroke-linecap="round" stroke-linejoin="round"/>
    <path d="M10 6.73437C12.0783 6.73437 13.7656 8.42167 13.7656 10.5C13.7656 12.5783 12.0783 14.2656 10 14.2656C7.92168 14.2656 6.23438 12.5783 6.23438 10.5C6.23438 8.42167 7.92168 6.73437 10 6.73437Z" stroke="#68696B" stroke-miterlimit="10" stroke-linecap="round" stroke-linejoin="round"/>
</svg>
