<svg width="18" height="21" viewBox="0 0 18 21" fill="none"
    xmlns="http://www.w3.org/2000/svg">
    <path d="M17.3811 5.64964C17.3708 5.10966 17.361 4.59956 17.361 4.10607C17.361 3.71945 17.0477 3.40602 16.661 3.40602C13.6671 3.40602 11.3876 2.54561 9.48761 0.69822C9.2158 0.43388 8.78327 0.433973 8.51155 0.69822C6.61171 2.54561 4.33262 3.40602 1.33892 3.40602C0.952304 3.40602 0.638867 3.71945 0.638867 4.10607C0.638867 4.59965 0.62916 5.10994 0.618799 5.65001C0.522846 10.6751 0.391423 17.5571 8.77029 20.4614C8.84459 20.4872 8.92206 20.5001 8.99953 20.5001C9.07701 20.5001 9.15457 20.4872 9.22878 20.4614C17.6083 17.557 17.4771 10.6748 17.3811 5.64964ZM8.99963 19.0571C1.81365 16.4467 1.92229 10.7282 2.01872 5.6767C2.0245 5.37354 2.0301 5.0797 2.03402 4.79165C4.83796 4.6733 7.08018 3.82362 8.99963 2.15153C10.9193 3.82362 13.1619 4.67339 15.966 4.79165C15.9699 5.07961 15.9755 5.37326 15.9813 5.67624C16.0776 10.7279 16.1862 16.4466 8.99963 19.0571Z" fill="#68696B"/>
    <path d="M11.4103 8.06828L8.03151 11.4469L6.58968 10.0051C6.31629 9.73179 5.87301 9.73179 5.59971 10.0051C5.32632 10.2786 5.32632 10.7218 5.59971 10.9951L7.53652 12.932C7.67317 13.0686 7.85239 13.1369 8.03151 13.1369C8.21063 13.1369 8.38984 13.0686 8.52649 12.932L12.4002 9.05834C12.6737 8.78495 12.6737 8.34167 12.4003 8.06837C12.127 7.79498 11.6837 7.79489 11.4103 8.06828Z" fill="#68696B"/>
</svg>
