<svg width="20" height="21" viewBox="0 0 20 21" fill="none"
    xmlns="http://www.w3.org/2000/svg">
    <path d="M17.228 8.76732H17.1785V7.55445C17.1785 3.65839 14.0202 0.5 10.1241 0.5C6.22795 0.5 3.0696 3.65839 3.0696 7.55445V8.76732H2.77259C1.68347 8.76732 0.841903 9.73265 0.841903 10.8465V13.9406C0.814471 15.0202 1.66746 15.9176 2.74706 15.9451C2.75559 15.9453 2.76407 15.9454 2.77259 15.9455H4.60427C4.86371 15.9334 5.06416 15.7131 5.05194 15.4537C5.05151 15.4443 5.0508 15.435 5.04981 15.4257V9.36135C5.04981 9.06433 4.87655 8.76728 4.60427 8.76728H4.05971V7.55441C4.05971 4.20518 6.77483 1.49005 10.1241 1.49005C13.4733 1.49005 16.1884 4.20518 16.1884 7.55441V8.76728H15.6439C15.3716 8.76728 15.1983 9.06429 15.1983 9.36135V15.4257C15.1707 15.684 15.3576 15.9157 15.6159 15.9433C15.6252 15.9443 15.6345 15.9451 15.6439 15.9455H16.2131L16.1636 16.0197C15.4209 17.0068 14.2554 17.585 13.0201 17.5791C12.7496 16.2531 11.4554 15.3973 10.1293 15.6678C8.99533 15.899 8.17773 16.8921 8.16859 18.0494C8.18214 19.4068 9.28642 20.5 10.6438 20.4999C11.3158 20.489 11.9563 20.2133 12.426 19.7326C12.7429 19.408 12.9506 18.9927 13.0201 18.5444C14.5671 18.5503 16.026 17.8254 16.9557 16.589L17.426 15.8959C18.4904 15.8217 19.1587 15.1534 19.1587 14.188V11.094C19.1587 10.0297 18.3667 8.76732 17.228 8.76732ZM4.05971 14.9554H2.77259C2.23959 14.9424 1.81803 14.4999 1.83101 13.9669C1.83124 13.9581 1.83158 13.9494 1.832 13.9405V10.8465C1.832 10.2772 2.22803 9.75738 2.77259 9.75738H4.05971V14.9554ZM11.7082 19.0396C11.4339 19.337 11.0485 19.5073 10.6439 19.5099C9.83856 19.4971 9.18503 18.8545 9.15874 18.0495C9.15841 17.2429 9.81198 16.5888 10.6185 16.5885C11.4251 16.5882 12.0792 17.2417 12.0795 18.0483C12.0795 18.0487 12.0795 18.0491 12.0795 18.0495C12.1001 18.417 11.9654 18.7763 11.7082 19.0396ZM18.1686 14.1881C18.1686 14.8564 17.525 14.9554 17.228 14.9554H16.1884V9.75742H17.228C17.7726 9.75742 18.1686 10.5248 18.1686 11.094V14.1881Z" fill="#68696B"/>
</svg>
