<svg width="33" height="33" viewBox="0 0 33 33" fill="none" xmlns="http://www.w3.org/2000/svg">
<g clip-path="url(#clip0_762_2062)">
<path d="M32.16 26.3667C32.2667 26.0467 32.2667 25.6733 32.1067 25.4067L31.7333 24.5C31.4133 23.86 30.6667 23.5933 30.0267 23.86L27.52 25.0333L22.0267 13.0867L24.5333 11.9133C24.8533 11.7533 25.0667 11.4867 25.2267 11.1667C25.3333 10.8467 25.3333 10.4733 25.1733 10.2067L24.7467 9.24667C24.5867 8.92667 24.32 8.71333 24 8.55333C23.68 8.44667 23.3067 8.44667 23.04 8.60667L22.8267 8.71333C22.8267 8.66 22.7733 8.55333 22.7733 8.5L22.3467 7.54C22.1867 7.22 21.92 7.00667 21.6 6.84667C21.28 6.74 20.9067 6.74 20.64 6.9L20.16 7.11333V4.82C20.16 4.5 19.9467 4.28667 19.6267 4.28667H15.52C15.04 3.38 14.1333 2.74 13.12 2.68667C12.8533 1.46 11.84 0.5 10.56 0.5C9.28 0.5 8.26667 1.46 8.16 2.68667C7.14667 2.79333 6.24 3.38 5.76 4.28667H0.533333C0.213333 4.28667 0 4.5 0 4.82V24.34H1.06667V5.35333H5.44V5.88667H2.72C2.4 5.88667 2.18667 6.1 2.18667 6.42V25.4067H0.533333C0.213333 25.4067 0 25.62 0 25.94V27.7C0 29.14 1.01333 30.42 2.4 30.74C2.50667 30.7933 2.61333 30.8467 2.72 30.8467H15.7333C16.9067 30.8467 17.92 29.8867 17.92 28.66V15.0067L18.88 14.58L19.04 14.9V31.4333H1.06667V30.9H0V31.9667C0 32.2867 0.213333 32.5 0.533333 32.5H19.52C19.84 32.5 20.0533 32.2867 20.0533 31.9667V17.1933L24.3733 26.4733L22.1867 27.4867C21.5467 27.8067 21.28 28.5533 21.5467 29.1933L21.9733 30.1C22.1333 30.42 22.4 30.6333 22.72 30.7933C22.88 30.8467 23.04 30.8467 23.1467 30.8467C23.3067 30.8467 23.52 30.7933 23.68 30.74L23.8933 30.6333C23.8933 30.6867 23.9467 30.7933 23.9467 30.8467L24.3733 31.7533C24.5867 32.2333 25.0667 32.5 25.5467 32.5C25.7067 32.5 25.92 32.4467 26.08 32.3933L31.1467 30.0467C31.7867 29.7267 32.0533 28.98 31.7867 28.34L31.36 27.4333C31.3067 27.38 31.3067 27.3267 31.2533 27.22L31.4667 27.1133C31.84 26.9533 32.0533 26.74 32.16 26.3667ZM23.4133 9.62H23.5733C23.6267 9.62 23.68 9.67333 23.68 9.72667L24.1067 10.6867C24.16 10.74 24.1067 10.7933 24.1067 10.8467C24.1067 10.9 24.0533 10.9533 24 10.9533L17.12 14.1533L16.2133 14.58C16.1067 14.6333 15.9467 14.58 15.8933 14.4733L15.4667 13.5667C15.4133 13.5133 15.4667 13.4067 15.4667 13.4067C15.4667 13.3533 15.52 13.3 15.5733 13.3L21.5467 10.5267L22.0267 10.3133L23.4133 9.62ZM20.96 7.96667H21.12C21.1733 7.96667 21.2267 8.02 21.2267 8.07333L21.6533 9.03333C21.7067 9.08667 21.6533 9.14 21.6533 9.19333C21.6533 9.24667 21.6 9.3 21.5467 9.3L16.5333 11.6467C16.4267 11.7 16.32 11.6467 16.2667 11.54L15.7867 10.6333C15.7333 10.58 15.7867 10.4733 15.7867 10.4733C15.7867 10.42 15.84 10.3667 15.8933 10.3667L17.6 9.56667L20.96 7.96667ZM18.9867 7.75333L17.8667 8.28667V6.52667C17.8667 6.20667 17.6533 5.99333 17.3333 5.99333H15.68V5.46H18.9867V7.75333ZM6.61333 5.03333C6.88 4.28667 7.62667 3.75333 8.42667 3.75333H8.74667C8.90667 3.75333 9.06667 3.7 9.17333 3.59333C9.28 3.48667 9.33333 3.32667 9.28 3.16667V2.95333C9.28 2.20667 9.86667 1.56667 10.6667 1.56667C11.4667 1.56667 12.0533 2.15333 12.0533 2.95333V3.16667C12.0533 3.32667 12.1067 3.48667 12.16 3.59333C12.2133 3.7 12.4267 3.75333 12.5867 3.75333H12.9067C13.7067 3.75333 14.4533 4.28667 14.72 5.03333C14.7733 5.24667 14.8267 5.46 14.8267 5.67333C14.8267 5.88667 14.7733 6.1 14.72 6.31333C14.4533 7.06 13.7067 7.59333 12.9067 7.59333H8.58667C7.78667 7.59333 7.04 7.06 6.77333 6.31333C6.72 6.1 6.66667 5.88667 6.66667 5.67333C6.50667 5.40667 6.50667 5.19333 6.61333 5.03333ZM3.2 29.78C3.09333 29.78 2.93333 29.78 2.82667 29.7267C1.81333 29.5667 1.06667 28.7133 1.06667 27.7V26.5267H13.6V28.7133C13.6 28.8733 13.6 29.0867 13.7067 29.3533C13.76 29.5667 13.8667 29.7267 13.92 29.8333C10.2933 29.78 6.72 29.78 3.2 29.78ZM8.42667 8.60667H12.7467C13.0133 8.60667 13.8133 8.60667 14.56 8.07333C15.0933 7.7 15.3067 7.22 15.4133 7.00667H16.8533V8.76667L15.4667 9.35333C15.1467 9.51333 14.9333 9.72667 14.7733 10.0467C14.72 10.2067 14.6667 10.3667 14.6667 10.5267C14.6667 10.6867 14.72 10.8467 14.7733 11.0067L15.2 11.9133C15.2533 11.9667 15.2533 12.02 15.3067 12.1267L15.0933 12.2333C14.4533 12.5533 14.1867 13.3 14.4533 13.94L14.88 14.9C14.9333 14.9533 15.2 15.4867 15.7867 15.5933C16.2667 15.7 16.64 15.4867 16.7467 15.4333V28.66C16.7467 29.2467 16.2667 29.78 15.68 29.78C14.72 29.78 14.6133 28.8733 14.6133 28.66V25.94C14.6133 25.8867 14.6133 25.78 14.56 25.7267C14.4533 25.5133 14.2933 25.4067 14.08 25.4067H3.25333V7.00667H5.76C5.86667 7.27333 6.18667 7.7 6.72 8.12667C7.41333 8.55333 8.10667 8.60667 8.42667 8.60667ZM19.84 14.1L21.0667 13.5133L26.56 25.4067L25.3333 25.9933L19.84 14.1ZM23.2533 29.78C23.2 29.8333 23.0933 29.78 23.0933 29.78C23.04 29.78 22.9867 29.7267 22.9867 29.6733L22.56 28.7667C22.5067 28.66 22.56 28.5 22.6667 28.5L30.5067 24.8733H30.6133C30.72 24.8733 30.7733 24.9267 30.8267 24.98L31.2533 25.8867C31.3067 25.94 31.2533 26.0467 31.2533 26.0467C31.2533 26.1 31.2 26.1533 31.1467 26.1533L27.2533 27.9667L24.6933 29.14L23.2533 29.78ZM30.1333 27.7533C30.24 27.7 30.4 27.7533 30.4 27.86L30.8267 28.7667C30.88 28.8733 30.8267 29.0333 30.72 29.0333L25.7067 31.4333C25.6 31.4867 25.44 31.4333 25.44 31.3267L25.0133 30.42C24.96 30.3133 25.0133 30.1533 25.12 30.1533L27.68 28.98L30.1333 27.7533Z" fill="#F39479"/>
<path d="M7.57334 10.7932H4.85334C4.53334 10.7932 4.32001 11.0065 4.32001 11.3265V14.0465C4.32001 14.3665 4.53334 14.5799 4.85334 14.5799H7.57334C7.89334 14.5799 8.10667 14.3665 8.10667 14.0465V11.3265C8.10667 11.0599 7.89334 10.7932 7.57334 10.7932ZM7.04001 13.5132H5.38667V11.8599H7.04001V13.5132ZM9.06667 11.1665H13.8667V12.2332H9.06667V11.1665ZM9.06667 12.7665H13.8667V13.8332H9.06667V12.7665ZM7.57334 15.6999H4.85334C4.53334 15.6999 4.32001 15.9132 4.32001 16.2332V18.9532C4.32001 19.2732 4.53334 19.4865 4.85334 19.4865H7.57334C7.89334 19.4865 8.10667 19.2732 8.10667 18.9532V16.2332C8.10667 15.9132 7.89334 15.6999 7.57334 15.6999ZM7.04001 18.4199H5.38667V16.7665H7.04001V18.4199ZM9.22667 16.2332H15.7333V17.2999H9.22667V16.2332ZM9.22667 17.8865H13.5467V18.9532H9.22667V17.8865ZM7.57334 20.5532H4.85334C4.53334 20.5532 4.32001 20.7665 4.32001 21.0865V23.8065C4.32001 24.1265 4.53334 24.3399 4.85334 24.3399H7.57334C7.89334 24.3399 8.10667 24.1265 8.10667 23.8065V21.0865C8.10667 20.8199 7.89334 20.5532 7.57334 20.5532ZM7.04001 23.2732H5.38667V21.6199H7.04001V23.2732ZM9.22667 21.1399H15.7333V22.2065H9.22667V21.1399ZM9.22667 22.7399H13.5467V23.8065H9.22667V22.7399Z" fill="#F39479"/>
</g>
<defs>
<clipPath id="clip0_762_2062">
<rect width="32.2667" height="32" fill="white" transform="translate(0 0.5)"/>
</clipPath>
</defs>
</svg>
