<svg width="30" height="31" viewBox="0 0 30 31" fill="none" xmlns="http://www.w3.org/2000/svg">
<path d="M11.7764 10.9471L12.7038 11.4109L13.6464 12.3535C13.6928 12.3999 13.748 12.4367 13.8086 12.4619C13.8693 12.487 13.9343 12.4999 14 12.4999C14.0656 12.4999 14.1307 12.487 14.1913 12.4619C14.252 12.4367 14.3071 12.3999 14.3535 12.3535L15.2962 11.4109L16.2236 10.9471C16.2829 10.918 16.3358 10.8776 16.3793 10.828C16.4228 10.7784 16.4561 10.7206 16.4772 10.6581C16.4983 10.5956 16.5068 10.5295 16.5023 10.4637C16.4977 10.3978 16.4802 10.3336 16.4507 10.2745C16.4212 10.2155 16.3802 10.1629 16.3303 10.1198C16.2804 10.0767 16.2224 10.0438 16.1597 10.0232C16.097 10.0026 16.0309 9.99458 15.9651 9.99965C15.8993 10.0047 15.8351 10.0228 15.7764 10.0527L14.7764 10.5527C14.7283 10.5768 14.6844 10.6084 14.6464 10.6465L14 11.2928L13.3535 10.6464C13.3156 10.6083 13.2717 10.5767 13.2236 10.5526L12.2236 10.0526C12.1648 10.0226 12.1007 10.0046 12.0349 9.99952C11.9691 9.99446 11.9029 10.0025 11.8403 10.0231C11.7776 10.0437 11.7196 10.0765 11.6696 10.1197C11.6197 10.1628 11.5788 10.2154 11.5493 10.2744C11.5198 10.3334 11.5022 10.3977 11.4977 10.4635C11.4931 10.5294 11.5017 10.5955 11.5228 10.658C11.5439 10.7205 11.5771 10.7782 11.6207 10.8278C11.6642 10.8774 11.7171 10.9179 11.7764 10.947V10.9471ZM13 14.9999C13.1326 14.9999 13.2598 14.9472 13.3535 14.8535C13.4473 14.7597 13.5 14.6325 13.5 14.4999C13.5 14.3673 13.4473 14.2401 13.3535 14.1464C13.2598 14.0526 13.1326 13.9999 13 13.9999H11.177C11.077 14.0002 10.9792 13.9704 10.8964 13.9144C10.8136 13.8583 10.7496 13.7786 10.7127 13.6856L9.96423 11.8142C9.93984 11.7533 9.90369 11.6977 9.85783 11.6507C9.81197 11.6037 9.7573 11.5662 9.69695 11.5403C9.6366 11.5145 9.57174 11.5007 9.50609 11.4999C9.44043 11.4991 9.37526 11.5113 9.31429 11.5357C9.25332 11.5601 9.19776 11.5962 9.15076 11.6421C9.10377 11.6879 9.06627 11.7426 9.0404 11.8029C9.01453 11.8633 9.00081 11.9282 9.00001 11.9938C8.9992 12.0595 9.01134 12.1246 9.03573 12.1856L9.78429 14.057C9.89482 14.336 10.0868 14.5751 10.3353 14.7433C10.5837 14.9115 10.877 15.0009 11.177 14.9999H13ZM14.5 14.4999C14.5 14.6325 14.5527 14.7597 14.6464 14.8535C14.7402 14.9472 14.8674 14.9999 15 14.9999H16.8229C17.1229 15.0009 17.4163 14.9115 17.6647 14.7433C17.9131 14.5751 18.1051 14.336 18.2157 14.057L18.9642 12.1856C19.0135 12.0625 19.0118 11.9248 18.9596 11.8029C18.9073 11.6811 18.8088 11.5849 18.6857 11.5357C18.5625 11.4864 18.4249 11.4881 18.303 11.5403C18.1811 11.5926 18.085 11.6911 18.0357 11.8142L17.2875 13.6856C17.2506 13.7786 17.1866 13.8584 17.1037 13.9144C17.0208 13.9705 16.923 14.0003 16.8229 13.9999H15C14.8674 13.9999 14.7402 14.0526 14.6464 14.1464C14.5527 14.2401 14.5 14.3673 14.5 14.4999Z" fill="#2A9BCE"/>
<path d="M23 14.5C21.8908 14.4987 20.7974 14.7625 19.8109 15.2695L21.3056 12.0312C22.6139 12.1157 23.8931 11.7745 25.1145 11.0147C26.1927 10.3438 26.9895 9.48967 27.4677 8.89154C27.6607 8.65006 27.7745 8.35494 27.7936 8.04642C27.8127 7.7379 27.7362 7.431 27.5745 7.16754L23.9258 1.23817C23.8898 1.17964 23.8421 1.12917 23.7857 1.0899C23.7293 1.05062 23.6654 1.0234 23.598 1.00992L21.098 0.509917C21.0337 0.497042 20.9674 0.496979 20.9029 0.509729C20.8385 0.52248 20.7772 0.547795 20.7226 0.584229L19.2226 1.58423C19.1313 1.64507 19.0626 1.73423 19.027 1.83798C18.9914 1.94172 18.9909 2.0543 19.0256 2.15835L19.5256 3.65835C19.5588 3.75787 19.6225 3.84441 19.7077 3.90572C19.7928 3.96703 19.8951 4 20 3.99998H22.1395L23.1615 7.06585C22.9439 7.02139 22.7222 6.99932 22.5 6.99998C21.7178 6.99998 21.1794 7.44723 20.87 7.81248C20.4448 7.6005 19.975 7.49335 19.5 7.49998C18.6601 7.49998 17.8769 8.02729 17.4562 8.36998L16.5 7.73248V5.99998C16.5 5.86737 16.4473 5.74019 16.3535 5.64643C16.2598 5.55266 16.1326 5.49998 16 5.49998H12C11.8674 5.49998 11.7402 5.55266 11.6464 5.64643C11.5527 5.74019 11.5 5.86737 11.5 5.99998V7.73242L10.5437 8.36992C10.1231 8.02729 9.33986 7.49998 8.49999 7.49998C8.02493 7.49335 7.55518 7.6005 7.12999 7.81248C6.82061 7.44717 6.28217 6.99998 5.49999 6.99998C5.2778 6.99932 5.05612 7.02139 4.83842 7.06585L5.86042 3.99998H7.99999C8.10493 3.99999 8.20722 3.96697 8.29236 3.90561C8.3775 3.84426 8.44117 3.75766 8.47436 3.6581L8.97436 2.1581C9.00904 2.05405 9.00855 1.94147 8.97295 1.83773C8.93735 1.73398 8.86862 1.64482 8.77736 1.58398L7.27736 0.583979C7.167 0.510462 7.03197 0.483736 6.90192 0.509667L4.40192 1.00967C4.33454 1.02315 4.27066 1.05037 4.21427 1.08965C4.15788 1.12892 4.11019 1.17939 4.07417 1.23792L0.425611 7.16704C0.263855 7.43043 0.187263 7.73729 0.206277 8.0458C0.225291 8.35431 0.338985 8.64945 0.531861 8.89098C1.01036 9.48935 1.80686 10.3435 2.88536 11.0144C4.10642 11.7743 5.38567 12.1157 6.69424 12.031L9.49999 18.1098V21.5C9.49999 21.6326 9.55266 21.7598 9.64643 21.8535C9.7402 21.9473 9.86738 22 9.99999 22H16.0179C16.0898 23.0133 16.3818 23.9987 16.8736 24.8875L16.5694 24.7861C16.4813 24.7567 16.3867 24.7525 16.2963 24.7738C16.2059 24.7951 16.1232 24.8411 16.0575 24.9067L14.29 26.6742C14.2297 26.7345 14.1857 26.8091 14.1624 26.8911C14.139 26.9731 14.137 27.0597 14.1566 27.1427C14.1761 27.2256 14.2165 27.3022 14.274 27.3652C14.3315 27.4282 14.4041 27.4754 14.485 27.5024L16.3694 28.1305L16.9975 30.0149C17.0245 30.0956 17.0717 30.1682 17.1346 30.2256C17.1975 30.283 17.274 30.3234 17.3569 30.343C17.3945 30.3522 17.4331 30.3568 17.4719 30.3567C17.5376 30.3567 17.6027 30.3437 17.6634 30.3185C17.7241 30.2933 17.7792 30.2564 17.8256 30.2099L19.5931 28.4424C19.6588 28.3767 19.7049 28.294 19.7262 28.2036C19.7475 28.1131 19.7432 28.0186 19.7137 27.9305L19.6124 27.6262C20.5472 28.143 21.5879 28.439 22.6548 28.4915C23.7217 28.544 24.7864 28.3517 25.7675 27.9292C26.7486 27.5068 27.62 26.8654 28.3149 26.0542C29.0099 25.243 29.5099 24.2835 29.7769 23.2492C30.0438 22.2149 30.0705 21.1333 29.8549 20.0871C29.6393 19.0409 29.1871 18.0579 28.533 17.2135C27.8789 16.369 27.0402 15.6854 26.0812 15.2151C25.1221 14.7447 24.0682 14.5001 23 14.5ZM10.454 17.7904L7.45399 11.2904C7.40957 11.194 7.33561 11.1143 7.24283 11.0628C7.15005 11.0113 7.04328 10.9906 6.93799 11.0039C4.11861 11.3558 2.06499 9.20692 1.31299 8.26635C1.24855 8.18585 1.21055 8.08741 1.20418 7.98449C1.1978 7.88157 1.22336 7.7792 1.27736 7.69135L4.81186 1.9476L6.89517 1.53098L7.90517 2.20423L7.63955 2.99998H5.49999C5.39504 2.99997 5.29275 3.03299 5.20761 3.09434C5.12247 3.1557 5.0588 3.2423 5.02561 3.34185L3.52561 7.84185C3.48997 7.94872 3.49145 8.06449 3.52983 8.1704C3.56821 8.27631 3.64123 8.36616 3.73706 8.42539C3.83289 8.48461 3.94591 8.50974 4.0578 8.4967C4.1697 8.48366 4.27391 8.43322 4.35355 8.35354C4.35711 8.34998 4.74117 7.99998 5.49999 7.99998C6.17111 7.99998 6.55049 8.71917 6.5528 8.7236C6.58742 8.7962 6.63912 8.85933 6.70347 8.90758C6.76783 8.95583 6.84291 8.98777 6.9223 9.00067C7.00011 9.01318 7.0798 9.00658 7.15449 8.98141C7.22917 8.95625 7.29661 8.91328 7.35099 8.85623C7.39186 8.81954 7.76867 8.49998 8.49999 8.49998C9.14499 8.49998 9.90761 9.1166 10.1464 9.35354C10.2282 9.43529 10.3357 9.48619 10.4507 9.49758C10.5658 9.50898 10.6812 9.48016 10.7774 9.41604L12.2774 8.41604C12.3459 8.37038 12.402 8.30851 12.4408 8.23592C12.4797 8.16334 12.5 8.0823 12.5 7.99998V6.49998H15.5V7.99998C15.5 8.08229 15.5203 8.16332 15.5591 8.23589C15.598 8.30846 15.6541 8.37032 15.7226 8.41598L17.2226 9.41598C17.3187 9.47982 17.4339 9.50854 17.5487 9.49728C17.6636 9.48602 17.771 9.43547 17.8529 9.35417C18.0924 9.1166 18.855 8.49998 19.5 8.49998C20.2312 8.49998 20.6081 8.81954 20.649 8.85623C20.7031 8.91353 20.7703 8.95677 20.8449 8.98219C20.9195 9.00761 20.9991 9.01445 21.0769 9.0021C21.1561 8.98946 21.2311 8.95777 21.2953 8.90974C21.3595 8.86172 21.4111 8.79881 21.4457 8.72642C21.4495 8.71917 21.8289 7.99998 22.5 7.99998C23.2312 7.99998 23.6081 8.31954 23.649 8.35623C23.7266 8.43754 23.8297 8.48977 23.9412 8.5042C24.0527 8.51862 24.1657 8.49436 24.2615 8.43548C24.359 8.37528 24.4331 8.28372 24.4717 8.17583C24.5104 8.06794 24.5111 7.95013 24.474 7.84173L22.974 3.34173C22.9408 3.24225 22.8772 3.15573 22.7921 3.0944C22.707 3.03307 22.6049 3.00004 22.5 2.99998H20.3604L20.095 2.20417L21.105 1.53092L23.1884 1.94754L26.723 7.69167C26.777 7.77956 26.8024 7.88196 26.796 7.98487C26.7895 8.08778 26.7515 8.18619 26.687 8.26667C25.935 9.2071 23.8813 11.3561 21.062 11.0042C20.9567 10.9909 20.8499 11.0115 20.7571 11.0631C20.6643 11.1146 20.5904 11.1944 20.546 11.2908L18.171 16.4375C16.9099 17.6369 16.1421 19.264 16.018 21H14.5V19.5H15C15.1326 19.5 15.2598 19.4473 15.3535 19.3535C15.4473 19.2598 15.5 19.1326 15.5 19C15.5 18.8674 15.4473 18.7402 15.3535 18.6464C15.2598 18.5527 15.1326 18.5 15 18.5H14.5V17.5H16C16.1326 17.5 16.2598 17.4473 16.3535 17.3535C16.4473 17.2598 16.5 17.1326 16.5 17C16.5 16.8674 16.4473 16.7402 16.3535 16.6464C16.2598 16.5527 16.1326 16.5 16 16.5H14.5V16C14.5 15.8674 14.4473 15.7402 14.3535 15.6464C14.2598 15.5527 14.1326 15.5 14 15.5C13.8674 15.5 13.7402 15.5527 13.6464 15.6464C13.5527 15.7402 13.5 15.8674 13.5 16V16.5H12C11.8674 16.5 11.7402 16.5527 11.6464 16.6464C11.5527 16.7402 11.5 16.8674 11.5 17C11.5 17.1326 11.5527 17.2598 11.6464 17.3535C11.7402 17.4473 11.8674 17.5 12 17.5H13.5V18.5H13C12.8674 18.5 12.7402 18.5527 12.6464 18.6464C12.5527 18.7402 12.5 18.8674 12.5 19C12.5 19.1326 12.5527 19.2598 12.6464 19.3535C12.7402 19.4473 12.8674 19.5 13 19.5H13.5V21H10.5V18C10.5 17.9276 10.4843 17.8561 10.454 17.7904ZM15.5687 26.8094L16.5462 25.8325L17.6068 26.1862L16.6297 27.1634L15.5687 26.8094ZM17.69 28.9312L17.3369 27.87L18.314 26.8929L18.6675 27.9537L17.69 28.9312ZM23 27.5C21.5815 27.5006 20.2088 26.9975 19.1266 26.0804L19.8375 25.3695C20.8319 26.1825 22.1007 26.5822 23.3815 26.4859C24.6623 26.3896 25.8571 25.8048 26.7187 24.8523C27.5804 23.8998 28.043 22.6526 28.0109 21.3686C27.9788 20.0846 27.4544 18.862 26.5462 17.9538C25.6379 17.0456 24.4154 16.5212 23.1314 16.4891C21.8474 16.457 20.6002 16.9196 19.6477 17.7812C18.6952 18.6429 18.1103 19.8377 18.014 21.1185C17.9178 22.3993 18.3175 23.6681 19.1304 24.6625L18.4195 25.3734C17.5376 24.3299 17.0383 23.0165 17.0043 21.6505C16.9703 20.2846 17.4036 18.948 18.2325 17.8619C19.0615 16.7757 20.2364 16.0051 21.5629 15.6775C22.8894 15.3499 24.2879 15.4849 25.5272 16.0603C26.7665 16.6356 27.7723 17.6168 28.3781 18.8416C28.9839 20.0663 29.1534 21.4611 28.8587 22.7953C28.5639 24.1294 27.8225 25.323 26.7572 26.1785C25.6918 27.0341 24.3663 27.5002 23 27.5ZM21 21.5C20.9995 21.0583 21.145 20.6288 21.4139 20.2784C21.6828 19.928 22.0601 19.6764 22.4869 19.5627C22.9137 19.449 23.3661 19.4796 23.7737 19.6498C24.1813 19.8199 24.5212 20.1201 24.7405 20.5035C24.9598 20.8869 25.0462 21.332 24.9862 21.7696C24.9262 22.2072 24.7232 22.6127 24.4087 22.9229C24.0943 23.2332 23.6862 23.4307 23.2478 23.4849C22.8095 23.539 22.3655 23.4467 21.985 23.2223L23.3538 21.8535C23.4003 21.8071 23.4371 21.7519 23.4622 21.6912C23.4874 21.6305 23.5003 21.5655 23.5003 21.4998C23.5003 21.4341 23.4874 21.369 23.4622 21.3083C23.4371 21.2476 23.4003 21.1925 23.3538 21.146C23.3073 21.0996 23.2522 21.0627 23.1915 21.0376C23.1308 21.0125 23.0657 20.9995 23 20.9995C22.9344 20.9995 22.8693 21.0125 22.8086 21.0376C22.7479 21.0627 22.6928 21.0996 22.6463 21.146L21.2775 22.5148C21.0956 22.2076 20.9997 21.857 21 21.5ZM21.2634 23.9437C21.8774 24.3804 22.6331 24.5705 23.3807 24.4763C24.1283 24.3821 24.8131 24.0104 25.2996 23.435C25.7861 22.8595 26.0386 22.1224 26.0071 21.3695C25.9756 20.6167 25.6624 19.9031 25.1296 19.3703C24.5968 18.8375 23.8833 18.5244 23.1304 18.4929C22.3776 18.4614 21.6404 18.7139 21.065 19.2004C20.4896 19.6868 20.1179 20.3717 20.0237 21.1193C19.9294 21.8669 20.1195 22.6226 20.5562 23.2366L19.8422 23.9507C19.2171 23.1457 18.9223 22.1327 19.0178 21.1179C19.1133 20.1031 19.592 19.1629 20.3564 18.4887C21.1207 17.8144 22.1134 17.4568 23.1321 17.4887C24.1509 17.5206 25.1192 17.9395 25.8399 18.6603C26.5606 19.381 26.9796 20.3493 27.0115 21.368C27.0433 22.3868 26.6857 23.3794 26.0115 24.1438C25.3373 24.9082 24.397 25.3868 23.3823 25.4824C22.3675 25.5779 21.3545 25.2831 20.5494 24.6579L21.2634 23.9437Z" fill="#2A9BCE"/>
</svg>
