<svg width="126" height="126" viewBox="0 0 126 126" fill="none" xmlns="http://www.w3.org/2000/svg">
<path d="M109.638 41.9068C105.449 43.5877 100.808 43.7679 96.5022 42.4167C100.337 48.5976 102.371 55.7261 102.375 63C102.375 71.8495 99.4042 79.9982 94.4567 86.5817L87.7157 79.8407C86.7964 80.4101 85.7375 80.714 84.6562 80.7188H76.7812C73.5249 80.7188 70.875 78.0688 70.875 74.8125V70.875H63L86.5817 94.4567C79.9982 99.4042 71.8495 102.375 63 102.375C41.2886 102.375 23.625 84.7114 23.625 63C23.625 54.1505 26.5958 45.9999 31.5433 39.4183L38.2843 46.1593C39.2036 45.5899 40.2625 45.286 41.3438 45.2813H49.2188C52.4751 45.2813 55.125 47.9312 55.125 51.1875V55.125H63L39.4183 31.5433C45.9998 26.5959 54.1505 23.625 63 23.625C70.2739 23.6289 77.4025 25.6628 83.5833 29.4978C82.2315 25.1918 82.4116 20.5506 84.0932 16.3623C77.4672 13.3584 70.2751 11.8071 63 11.8125C34.7307 11.8125 11.8125 34.7307 11.8125 63C11.8125 91.2693 34.7307 114.188 63 114.188C91.2693 114.188 114.188 91.2693 114.188 63C114.188 55.4774 112.551 48.3407 109.638 41.9068Z" fill="#FA6450"/>
<path d="M19.6875 63C19.6875 36.0616 40.4992 13.9998 66.9198 11.9798C65.6243 11.8814 64.321 11.8125 63 11.8125C34.7307 11.8125 11.8125 34.7307 11.8125 63C11.8125 91.2693 34.7307 114.188 63 114.188C64.3269 114.188 65.6362 114.121 66.9375 114.022C40.509 112.01 19.6875 89.9443 19.6875 63Z" fill="#DC4632"/>
<path d="M102.375 39.375C111.073 39.375 118.125 32.3235 118.125 23.625C118.125 14.9265 111.073 7.875 102.375 7.875C93.6765 7.875 86.625 14.9265 86.625 23.625C86.625 32.3235 93.6765 39.375 102.375 39.375Z" fill="#FAB400"/>
<path d="M90.529 23.625C90.529 15.5886 96.5514 8.97159 104.328 8.00887C103.68 7.92443 103.028 7.87972 102.375 7.875C98.1978 7.875 94.1918 9.53437 91.2381 12.4881C88.2844 15.4418 86.625 19.4478 86.625 23.625C86.625 27.8022 88.2844 31.8082 91.2381 34.7619C94.1918 37.7156 98.1978 39.375 102.375 39.375C103.037 39.375 103.686 39.3199 104.326 39.2411C96.5514 38.2784 90.529 31.6614 90.529 23.625Z" fill="#DC9600"/>
<path d="M109.335 27.8008L105.159 23.6251L109.335 19.4493L106.551 16.6655L102.375 20.8412L98.1994 16.6655L95.4136 19.4493L99.5913 23.6251L95.4136 27.8008L98.1994 30.5846L102.375 26.4089L106.551 30.5846L109.335 27.8008Z" fill="#F0F0F0"/>
<path d="M41.3438 76.7812H49.2188C49.7409 76.7812 50.2417 76.5738 50.6109 76.2046C50.9801 75.8354 51.1875 75.3346 51.1875 74.8125V51.1875C51.1875 50.6654 50.9801 50.1646 50.6109 49.7954C50.2417 49.4262 49.7409 49.2188 49.2188 49.2188H41.3438C40.8216 49.2188 40.3208 49.4262 39.9516 49.7954C39.5824 50.1646 39.375 50.6654 39.375 51.1875V74.8125C39.375 75.3346 39.5824 75.8354 39.9516 76.2046C40.3208 76.5738 40.8216 76.7812 41.3438 76.7812Z" fill="#505050"/>
<path d="M39.375 72.8438H37.4062C36.8841 72.8438 36.3833 72.6363 36.0141 72.2671C35.6449 71.8979 35.4375 71.3971 35.4375 70.875V55.125C35.4375 54.6029 35.6449 54.1021 36.0141 53.7329C36.3833 53.3637 36.8841 53.1562 37.4062 53.1562H39.375V72.8438Z" fill="#3C3C3C"/>
<path d="M84.6562 49.2188H76.7812C76.2591 49.2188 75.7583 49.4262 75.3891 49.7954C75.0199 50.1646 74.8125 50.6654 74.8125 51.1875V74.8125C74.8125 75.3346 75.0199 75.8354 75.3891 76.2046C75.7583 76.5738 76.2591 76.7812 76.7812 76.7812H84.6562C85.1784 76.7812 85.6792 76.5738 86.0484 76.2046C86.4176 75.8354 86.625 75.3346 86.625 74.8125V51.1875C86.625 50.6654 86.4176 50.1646 86.0484 49.7954C85.6792 49.4262 85.1784 49.2188 84.6562 49.2188Z" fill="#505050"/>
<path d="M86.625 53.1562H88.5938C89.1159 53.1562 89.6167 53.3637 89.9859 53.7329C90.3551 54.1021 90.5625 54.6029 90.5625 55.125V70.875C90.5625 71.3971 90.3551 71.8979 89.9859 72.2671C89.6167 72.6363 89.1159 72.8438 88.5938 72.8438H86.625V53.1562Z" fill="#3C3C3C"/>
<path d="M51.1875 59.0625H74.8125V66.9375H51.1875V59.0625Z" fill="#FAB400"/>
</svg>
