<svg width="18" height="25" viewBox="0 0 18 25" fill="none"
    xmlns="http://www.w3.org/2000/svg">
    <path d="M7.92499 9.875H9.67499C9.67499 10.1071 9.76717 10.3296 9.93127 10.4937C10.0954 10.6578 10.3179 10.75 10.55 10.75C10.7821 10.75 11.0046 10.6578 11.1687 10.4937C11.3328 10.3296 11.425 10.1071 11.425 9.875C11.6571 9.875 11.8796 9.78281 12.0437 9.61872C12.2078 9.45462 12.3 9.23206 12.3 9C12.3 8.76794 12.2078 8.54538 12.0437 8.38128C11.8796 8.21719 11.6571 8.125 11.425 8.125C11.425 7.89294 11.3328 7.67038 11.1687 7.50628C11.0046 7.34219 10.7821 7.25 10.55 7.25C10.3179 7.25 10.0954 7.34219 9.93127 7.50628C9.76717 7.67038 9.67499 7.89294 9.67499 8.125H7.92499C7.92499 7.89294 7.8328 7.67038 7.66871 7.50628C7.50461 7.34219 7.28205 7.25 7.04999 7.25C6.81792 7.25 6.59536 7.34219 6.43127 7.50628C6.26718 7.67038 6.17499 7.89294 6.17499 8.125C5.94292 8.125 5.72036 8.21719 5.55627 8.38128C5.39218 8.54538 5.29999 8.76794 5.29999 9C5.29999 9.23206 5.39218 9.45462 5.55627 9.61872C5.72036 9.78281 5.94292 9.875 6.17499 9.875C6.17499 10.1071 6.26718 10.3296 6.43127 10.4937C6.59536 10.6578 6.81792 10.75 7.04999 10.75C7.28205 10.75 7.50461 10.6578 7.66871 10.4937C7.8328 10.3296 7.92499 10.1071 7.92499 9.875Z" fill="#7D7C81"/>
    <path d="M15.8 1.125H13.805C13.6523 0.860509 13.433 0.640583 13.169 0.48708C12.905 0.333578 12.6054 0.251843 12.3 0.25H5.29999C4.99459 0.251843 4.69499 0.333578 4.43096 0.48708C4.16694 0.640583 3.94768 0.860509 3.79499 1.125H1.79999C1.33586 1.125 0.89074 1.30937 0.562551 1.63756C0.234362 1.96575 0.0499878 2.41087 0.0499878 2.875V23C0.0499878 23.4641 0.234362 23.9092 0.562551 24.2374C0.89074 24.5656 1.33586 24.75 1.79999 24.75H15.8C16.2641 24.75 16.7092 24.5656 17.0374 24.2374C17.3656 23.9092 17.55 23.4641 17.55 23V2.875C17.55 2.41087 17.3656 1.96575 17.0374 1.63756C16.7092 1.30937 16.2641 1.125 15.8 1.125ZM12.3 2V2.875C12.3 3.10706 12.2078 3.32962 12.0437 3.49372C11.8796 3.65781 11.6571 3.75 11.425 3.75H6.17499C5.94292 3.75 5.72036 3.65781 5.55627 3.49372C5.39218 3.32962 5.29999 3.10706 5.29999 2.875V2H12.3ZM15.8 23H1.79999V2.875H3.54999C3.54999 3.57119 3.82655 4.23887 4.31883 4.73116C4.81112 5.22344 5.47879 5.5 6.17499 5.5H11.425C12.1212 5.5 12.7889 5.22344 13.2811 4.73116C13.7734 4.23887 14.05 3.57119 14.05 2.875H15.8V23Z" fill="#7D7C81"/>
    <path d="M4.42499 16C4.25193 16 4.08276 16.0513 3.93886 16.1475C3.79497 16.2436 3.68282 16.3803 3.61659 16.5402C3.55037 16.7 3.53304 16.876 3.5668 17.0457C3.60056 17.2154 3.6839 17.3713 3.80627 17.4937C3.92864 17.6161 4.08455 17.6994 4.25428 17.7332C4.42402 17.7669 4.59995 17.7496 4.75984 17.6834C4.91972 17.6172 5.05638 17.505 5.15252 17.3611C5.24867 17.2172 5.29999 17.0481 5.29999 16.875C5.29999 16.6429 5.2078 16.4204 5.04371 16.2563C4.87961 16.0922 4.65705 16 4.42499 16ZM13.175 16H7.92499C7.69292 16 7.47036 16.0922 7.30627 16.2563C7.14218 16.4204 7.04999 16.6429 7.04999 16.875C7.04999 17.1071 7.14218 17.3296 7.30627 17.4937C7.47036 17.6578 7.69292 17.75 7.92499 17.75H13.175C13.4071 17.75 13.6296 17.6578 13.7937 17.4937C13.9578 17.3296 14.05 17.1071 14.05 16.875C14.05 16.6429 13.9578 16.4204 13.7937 16.2563C13.6296 16.0922 13.4071 16 13.175 16ZM4.42499 12.5C4.25193 12.5 4.08276 12.5513 3.93886 12.6475C3.79497 12.7436 3.68282 12.8803 3.61659 13.0402C3.55037 13.2 3.53304 13.376 3.5668 13.5457C3.60056 13.7154 3.6839 13.8713 3.80627 13.9937C3.92864 14.1161 4.08455 14.1994 4.25428 14.2332C4.42402 14.2669 4.59995 14.2496 4.75984 14.1834C4.91972 14.1172 5.05638 14.005 5.15252 13.8611C5.24867 13.7172 5.29999 13.5481 5.29999 13.375C5.29999 13.1429 5.2078 12.9204 5.04371 12.7563C4.87961 12.5922 4.65705 12.5 4.42499 12.5ZM13.175 12.5H7.92499C7.69292 12.5 7.47036 12.5922 7.30627 12.7563C7.14218 12.9204 7.04999 13.1429 7.04999 13.375C7.04999 13.6071 7.14218 13.8296 7.30627 13.9937C7.47036 14.1578 7.69292 14.25 7.92499 14.25H13.175C13.4071 14.25 13.6296 14.1578 13.7937 13.9937C13.9578 13.8296 14.05 13.6071 14.05 13.375C14.05 13.1429 13.9578 12.9204 13.7937 12.7563C13.6296 12.5922 13.4071 12.5 13.175 12.5ZM4.42499 19.5C4.25193 19.5 4.08276 19.5513 3.93886 19.6475C3.79497 19.7436 3.68282 19.8803 3.61659 20.0402C3.55037 20.2 3.53304 20.376 3.5668 20.5457C3.60056 20.7154 3.6839 20.8713 3.80627 20.9937C3.92864 21.1161 4.08455 21.1994 4.25428 21.2332C4.42402 21.2669 4.59995 21.2496 4.75984 21.1834C4.91972 21.1172 5.05638 21.005 5.15252 20.8611C5.24867 20.7172 5.29999 20.5481 5.29999 20.375C5.29999 20.1429 5.2078 19.9204 5.04371 19.7563C4.87961 19.5922 4.65705 19.5 4.42499 19.5ZM13.175 19.5H7.92499C7.69292 19.5 7.47036 19.5922 7.30627 19.7563C7.14218 19.9204 7.04999 20.1429 7.04999 20.375C7.04999 20.6071 7.14218 20.8296 7.30627 20.9937C7.47036 21.1578 7.69292 21.25 7.92499 21.25H13.175C13.4071 21.25 13.6296 21.1578 13.7937 20.9937C13.9578 20.8296 14.05 20.6071 14.05 20.375C14.05 20.1429 13.9578 19.9204 13.7937 19.7563C13.6296 19.5922 13.4071 19.5 13.175 19.5Z" fill="#7D7C81"/>
</svg>
