<svg width="16" height="21" viewBox="0 0 16 21" fill="none"
    xmlns="http://www.w3.org/2000/svg">
    <path d="M7.65002 8.25H9.15002C9.15002 8.44891 9.22904 8.63968 9.36969 8.78033C9.51035 8.92098 9.70111 9 9.90002 9C10.0989 9 10.2897 8.92098 10.4304 8.78033C10.571 8.63968 10.65 8.44891 10.65 8.25C10.8489 8.25 11.0397 8.17098 11.1804 8.03033C11.321 7.88968 11.4 7.69891 11.4 7.5C11.4 7.30109 11.321 7.11032 11.1804 6.96967C11.0397 6.82902 10.8489 6.75 10.65 6.75C10.65 6.55109 10.571 6.36032 10.4304 6.21967C10.2897 6.07902 10.0989 6 9.90002 6C9.70111 6 9.51035 6.07902 9.36969 6.21967C9.22904 6.36032 9.15002 6.55109 9.15002 6.75H7.65002C7.65002 6.55109 7.57101 6.36032 7.43035 6.21967C7.2897 6.07902 7.09894 6 6.90002 6C6.70111 6 6.51035 6.07902 6.36969 6.21967C6.22904 6.36032 6.15002 6.55109 6.15002 6.75C5.95111 6.75 5.76035 6.82902 5.61969 6.96967C5.47904 7.11032 5.40002 7.30109 5.40002 7.5C5.40002 7.69891 5.47904 7.88968 5.61969 8.03033C5.76035 8.17098 5.95111 8.25 6.15002 8.25C6.15002 8.44891 6.22904 8.63968 6.36969 8.78033C6.51035 8.92098 6.70111 9 6.90002 9C7.09894 9 7.2897 8.92098 7.43035 8.78033C7.57101 8.63968 7.65002 8.44891 7.65002 8.25Z" fill="#7D7C81"/>
    <path d="M14.4 0.75H12.69C12.5591 0.523293 12.3712 0.334785 12.1449 0.203212C11.9186 0.0716382 11.6618 0.00158006 11.4 0H5.40002C5.13825 0.00158006 4.88145 0.0716382 4.65515 0.203212C4.42884 0.334785 4.24091 0.523293 4.11002 0.75H2.40002C2.0022 0.75 1.62067 0.908035 1.33936 1.18934C1.05806 1.47064 0.900024 1.85218 0.900024 2.25V19.5C0.900024 19.8978 1.05806 20.2794 1.33936 20.5607C1.62067 20.842 2.0022 21 2.40002 21H14.4C14.7978 21 15.1794 20.842 15.4607 20.5607C15.742 20.2794 15.9 19.8978 15.9 19.5V2.25C15.9 1.85218 15.742 1.47064 15.4607 1.18934C15.1794 0.908035 14.7978 0.75 14.4 0.75ZM11.4 1.5V2.25C11.4 2.44891 11.321 2.63968 11.1804 2.78033C11.0397 2.92098 10.8489 3 10.65 3H6.15002C5.95111 3 5.76035 2.92098 5.61969 2.78033C5.47904 2.63968 5.40002 2.44891 5.40002 2.25V1.5H11.4ZM14.4 19.5H2.40002V2.25H3.90002C3.90002 2.84674 4.13708 3.41903 4.55903 3.84099C4.98099 4.26295 5.55329 4.5 6.15002 4.5H10.65C11.2468 4.5 11.8191 4.26295 12.241 3.84099C12.663 3.41903 12.9 2.84674 12.9 2.25H14.4V19.5Z" fill="#7D7C81"/>
    <path d="M4.65002 13.5C4.50169 13.5 4.35668 13.544 4.23335 13.6264C4.11001 13.7088 4.01388 13.8259 3.95712 13.963C3.90035 14.1 3.8855 14.2508 3.91444 14.3963C3.94337 14.5418 4.01481 14.6754 4.11969 14.7803C4.22458 14.8852 4.35822 14.9566 4.50371 14.9856C4.64919 15.0145 4.79999 14.9997 4.93704 14.9429C5.07408 14.8861 5.19122 14.79 5.27363 14.6667C5.35604 14.5433 5.40002 14.3983 5.40002 14.25C5.40002 14.0511 5.32101 13.8603 5.18035 13.7197C5.0397 13.579 4.84894 13.5 4.65002 13.5ZM12.15 13.5H7.65002C7.45111 13.5 7.26035 13.579 7.11969 13.7197C6.97904 13.8603 6.90002 14.0511 6.90002 14.25C6.90002 14.4489 6.97904 14.6397 7.11969 14.7803C7.26035 14.921 7.45111 15 7.65002 15H12.15C12.3489 15 12.5397 14.921 12.6804 14.7803C12.821 14.6397 12.9 14.4489 12.9 14.25C12.9 14.0511 12.821 13.8603 12.6804 13.7197C12.5397 13.579 12.3489 13.5 12.15 13.5ZM4.65002 10.5C4.50169 10.5 4.35668 10.544 4.23335 10.6264C4.11001 10.7088 4.01388 10.8259 3.95712 10.963C3.90035 11.1 3.8855 11.2508 3.91444 11.3963C3.94337 11.5418 4.01481 11.6754 4.11969 11.7803C4.22458 11.8852 4.35822 11.9567 4.50371 11.9856C4.64919 12.0145 4.79999 11.9997 4.93704 11.9429C5.07408 11.8861 5.19122 11.79 5.27363 11.6667C5.35604 11.5433 5.40002 11.3983 5.40002 11.25C5.40002 11.0511 5.32101 10.8603 5.18035 10.7197C5.0397 10.579 4.84894 10.5 4.65002 10.5ZM12.15 10.5H7.65002C7.45111 10.5 7.26035 10.579 7.11969 10.7197C6.97904 10.8603 6.90002 11.0511 6.90002 11.25C6.90002 11.4489 6.97904 11.6397 7.11969 11.7803C7.26035 11.921 7.45111 12 7.65002 12H12.15C12.3489 12 12.5397 11.921 12.6804 11.7803C12.821 11.6397 12.9 11.4489 12.9 11.25C12.9 11.0511 12.821 10.8603 12.6804 10.7197C12.5397 10.579 12.3489 10.5 12.15 10.5ZM4.65002 16.5C4.50169 16.5 4.35668 16.544 4.23335 16.6264C4.11001 16.7088 4.01388 16.8259 3.95712 16.963C3.90035 17.1 3.8855 17.2508 3.91444 17.3963C3.94337 17.5418 4.01481 17.6754 4.11969 17.7803C4.22458 17.8852 4.35822 17.9566 4.50371 17.9856C4.64919 18.0145 4.79999 17.9997 4.93704 17.9429C5.07408 17.8861 5.19122 17.79 5.27363 17.6667C5.35604 17.5433 5.40002 17.3983 5.40002 17.25C5.40002 17.0511 5.32101 16.8603 5.18035 16.7197C5.0397 16.579 4.84894 16.5 4.65002 16.5ZM12.15 16.5H7.65002C7.45111 16.5 7.26035 16.579 7.11969 16.7197C6.97904 16.8603 6.90002 17.0511 6.90002 17.25C6.90002 17.4489 6.97904 17.6397 7.11969 17.7803C7.26035 17.921 7.45111 18 7.65002 18H12.15C12.3489 18 12.5397 17.921 12.6804 17.7803C12.821 17.6397 12.9 17.4489 12.9 17.25C12.9 17.0511 12.821 16.8603 12.6804 16.7197C12.5397 16.579 12.3489 16.5 12.15 16.5Z" fill="#7D7C81"/>
</svg>
