<svg width="23" height="23" viewBox="0 0 23 23" fill="none"
    xmlns="http://www.w3.org/2000/svg">
    <path d="M12.8147 19.2007C3.75405 10.1403 12.7625 19.1484 3.70154 10.0877C3.44975 9.8358 3.0421 9.8358 2.79026 10.0877L1.87898 10.999C1.12518 11.7528 1.12518 12.9791 1.87898 13.7329L2.33466 14.1885L1.87898 14.6442C1.12522 15.3981 1.12522 16.6244 1.87902 17.3782L5.52424 21.0234C6.27804 21.7771 7.50437 21.7771 8.25817 21.0234L8.71377 20.5677L9.16946 21.0234C9.92326 21.7771 11.1496 21.7771 11.9034 21.0234L12.8147 20.1121C13.0666 19.8603 13.0666 19.4526 12.8147 19.2007ZM20.921 9.26715L20.4653 8.81147L20.921 8.35578C21.6748 7.60202 21.6748 6.37561 20.921 5.62189L17.2757 1.97667C16.5219 1.22287 15.2956 1.22287 14.5418 1.97667L14.0861 2.43231L13.6305 1.97667C12.8767 1.22287 11.6503 1.22287 10.8965 1.97667L9.98526 2.88796C9.73338 3.13984 9.73338 3.54748 9.98526 3.79924L19.0984 12.9124C19.3502 13.1642 19.7578 13.1642 20.0097 12.9124L20.921 12.001C21.6748 11.2472 21.6748 10.0209 20.921 9.26715ZM21.8322 1.06539C21.0785 0.311544 19.8521 0.311544 19.0984 1.06535L18.6427 1.52099L21.3766 4.25492L21.8322 3.79924C22.586 3.04552 22.586 1.81911 21.8322 1.06539ZM1.42329 18.7451L0.967695 19.2007C0.213893 19.9545 0.213893 21.1809 0.967695 21.9347C1.72141 22.6885 2.94783 22.6885 3.70154 21.9347L4.15723 21.479L1.42329 18.7451ZM12.2635 7.90014L7.80253 12.366L10.5365 15.0999L14.9974 10.6341L12.2635 7.90014Z" fill="#68696B"/>
</svg>
