<svg width="23" height="23" viewBox="0 0 23 23" fill="none"
    xmlns="http://www.w3.org/2000/svg">
    <g clip-path="url(#clip0_839_1135)">
        <path d="M21.6334 4.71258L21.1776 4.25685L21.6334 3.80108C22.3872 3.04724 22.3872 1.82056 21.6333 1.06671C20.8795 0.312865 19.6528 0.312822 18.8989 1.06671L18.4431 1.52248L17.9874 1.06671C17.2335 0.312865 16.0068 0.312822 15.253 1.06671L14.7972 1.52248L14.3415 1.06675C13.5858 0.311103 12.3628 0.31106 11.6071 1.06675L9.78417 2.88967C9.53246 3.14138 9.53246 3.54941 9.78417 3.80112L12.9743 6.99127L6.6914 13.2743L3.50121 10.0841C3.2495 9.83241 2.84147 9.83241 2.58976 10.0841L0.766801 11.907C0.0129974 12.6609 0.0129974 13.8876 0.766801 14.6415L1.22257 15.0972L0.766801 15.553C0.0129974 16.3068 0.0129974 17.5335 0.766801 18.2873L1.22257 18.743L0.766801 19.1989C0.0129544 19.9527 0.0129544 21.1794 0.766801 21.9332C1.52065 22.6871 2.74732 22.6871 3.50121 21.9332L3.95698 21.4775L4.41276 21.9332C5.1666 22.6871 6.39332 22.6871 7.14713 21.9332L7.6029 21.4775L8.05867 21.9332C8.81432 22.6889 10.0374 22.6889 10.7931 21.9332L12.616 20.1103C12.8677 19.8586 12.8677 19.4505 12.616 19.1988L9.42585 16.0087L15.7089 9.72564L18.899 12.9158C19.1507 13.1675 19.5587 13.1675 19.8105 12.9158L21.6334 11.0929C22.3872 10.339 22.3872 9.11234 21.6334 8.35845L21.1776 7.90272L21.6334 7.44695C22.3872 6.6931 22.3872 5.46643 21.6334 4.71258ZM8.51431 13.2743L9.42577 14.1858L8.51431 15.0972L7.60285 14.1858L8.51431 13.2743ZM2.5898 21.0218C2.33847 21.2731 1.92963 21.2731 1.6783 21.0218C1.42698 20.7705 1.42698 20.3616 1.6783 20.1103L2.13407 19.6546L3.04553 20.566L2.5898 21.0218ZM6.23567 21.0218C5.98434 21.2731 5.5755 21.2731 5.32421 21.0218L1.6783 17.3759C1.42698 17.1245 1.42698 16.7157 1.6783 16.4644L2.13407 16.0086C2.33431 16.209 6.49151 20.3662 6.6914 20.566L6.23567 21.0218ZM11.2487 19.6546L9.8815 21.0218C9.62957 21.2737 9.22197 21.2737 8.97004 21.0218L1.67826 13.73C1.42693 13.4787 1.42693 13.0699 1.67826 12.8186L3.04549 11.4514L11.2487 19.6546ZM19.8104 1.97821C20.0617 1.72689 20.4705 1.72693 20.7218 1.97821C20.9731 2.22954 20.9731 2.63839 20.7218 2.88967L20.2661 3.34544L19.3546 2.43394L19.8104 1.97821ZM16.1645 1.97821C16.4159 1.72689 16.8247 1.72693 17.076 1.97821L20.7219 5.62412C20.9732 5.87545 20.9732 6.2843 20.7219 6.53558L20.2661 6.99131C20.0659 6.79099 15.9087 2.63375 15.7088 2.4339L16.1645 1.97821ZM10.3373 13.2743L9.42581 12.3628L12.0629 9.72559L12.9744 10.6371L10.3373 13.2743ZM13.8859 9.72568L12.9744 8.81422L13.8859 7.90277L14.7973 8.81422L13.8859 9.72568ZM20.7219 10.1814L19.3547 11.5486L11.1515 3.3454L12.5187 1.97817C12.7706 1.72628 13.1782 1.72624 13.4301 1.97817L20.7219 9.26991C20.9732 9.52123 20.9732 9.93013 20.7219 10.1814Z" fill="#7D7C81"/>
    </g>
    <defs>
        <clipPath id="clip0_839_1135">
            <rect width="22" height="22" fill="white" transform="translate(0.199951 0.5)"/>
        </clipPath>
    </defs>
</svg>
