<svg width="24" height="25" viewBox="0 0 24 25" fill="none"
    xmlns="http://www.w3.org/2000/svg">
    <path d="M23.0923 20.0078C21.4308 18.6187 16.5441 14.5212 14.3032 12.5226C15.5163 11.4107 17.2147 9.75708 18.8667 8.14797C20.7578 6.3057 22.5444 4.56594 23.354 3.88237C23.7646 3.5362 23.9999 3.02737 23.9999 2.48639C23.9999 1.80961 23.6479 1.20952 23.058 0.881401C22.4711 0.555246 21.7802 0.571324 21.2094 0.925838C19.3666 2.06888 12 7.35939 12 8.5C12 8.83646 11.9862 9.23223 11.8664 9.68138C11.3155 8.73676 11 7.87131 11 7.50002C11 6.7886 8.58252 4.47121 3.81447 0.611402C3.6167 0.450763 3.32767 0.465387 3.1465 0.646558L0.146521 3.64654C-0.0346503 3.8272 -0.0497908 4.11576 0.111364 4.31451C3.97122 9.08256 6.28856 11.5 6.99998 11.5C7.42448 11.5 8.49168 11.9106 9.58873 12.6181C7.37179 14.5887 2.85325 18.3811 0.908797 20.0068C0.331207 20.4897 0.000130775 21.2001 0.000130775 21.956C0.000130775 23.3588 1.14125 24.4999 2.54407 24.4999C3.29946 24.4999 4.01036 24.1684 4.49326 23.5903C6.16411 21.5928 10.0716 16.9372 12.0003 14.7781C13.9904 17.0072 18.1136 21.9244 19.5083 23.5922C19.9907 24.1694 20.7012 24.4999 21.4561 24.4999C22.8589 24.4999 24 23.3588 24 21.956C24 21.2011 23.6694 20.4907 23.0923 20.0078ZM13 8.58793C13.5259 7.76664 18.6885 3.66656 21.7368 1.77549C21.9946 1.61682 22.3071 1.60801 22.5718 1.75496C22.8398 1.90439 23 2.17781 23 2.48639C23 2.73201 22.894 2.96198 22.709 3.11822C21.8721 3.82476 20.0732 5.5767 18.169 7.43167C16.4904 9.06699 14.7658 10.7457 13.5613 11.8457C13.4861 11.7746 13.4087 11.7016 13.3536 11.6465C13.057 11.3499 12.7907 11.0265 12.5436 10.6978C12.9539 9.83705 12.9988 9.10416 13 8.58793ZM3.7262 22.9487C3.4337 23.2992 3.00255 23.4999 2.54407 23.4999C1.6925 23.4999 1.00011 22.8075 1.00011 21.9559C1.00011 21.497 1.20078 21.0663 1.55042 20.7743C3.54845 19.1032 8.25838 15.1498 10.4216 13.2153C10.672 13.4151 10.9177 13.6246 11.1466 13.8535C11.1951 13.9021 11.2611 13.9723 11.3222 14.0366C9.40545 16.1762 5.42016 20.9239 3.7262 22.9487ZM21.4561 23.5C20.9976 23.5 20.5674 23.2998 20.2754 22.9506C18.1538 20.4135 13.0864 14.3794 11.8535 13.1465C10.3467 11.6397 8.06596 10.5118 7.09964 10.5118C7.09476 10.5118 7.08937 10.5122 7.0845 10.5122C6.49561 10.2833 3.67192 7.10065 1.17242 4.03471L1.50008 3.70706L6.14653 8.35351C6.24417 8.45115 6.37214 8.5 6.50006 8.5C6.62798 8.5 6.7559 8.45115 6.85359 8.35351C7.04892 8.15819 7.04892 7.84178 6.85359 7.6465L2.20713 3.00004L2.5001 2.70708L7.14656 7.35353C7.2442 7.45117 7.37217 7.50002 7.50009 7.50002C7.62801 7.50002 7.75593 7.45117 7.85362 7.35353C8.04894 7.15821 8.04894 6.8418 7.85362 6.64652L3.20716 2.00007L3.53481 1.67241C6.6007 4.17191 9.78284 6.99222 10.0001 7.50002C10.0001 8.542 11.1319 10.8389 12.6466 12.3535C13.8795 13.5864 19.9136 18.6538 22.4507 20.7748C22.7998 21.0673 23 21.4975 23 21.956C23 22.8076 22.3076 23.5 21.4561 23.5Z" fill="#7D7C81"/>
</svg>
