<svg width="24" height="25" viewBox="0 0 24 25" fill="none"
    xmlns="http://www.w3.org/2000/svg">
    <path d="M23.0923 20.0045C21.4307 18.6143 16.5436 14.5134 14.3029 12.5136C15.5166 11.4008 17.215 9.74572 18.8667 8.13557C20.7578 6.29246 22.5444 4.55092 23.3545 3.86683C23.7647 3.51991 24 3.01076 24 2.47029C24 1.79305 23.648 1.19249 23.0581 0.864132C22.4712 0.537743 21.7803 0.553868 21.2095 0.908616C19.3667 2.0525 12 7.34691 12 8.48835C12 8.82515 11.9863 9.22115 11.8664 9.67053C11.3157 8.72521 11.0001 7.8592 11.0001 7.48762C11.0001 6.77569 8.58259 4.45661 3.81454 0.593946C3.61683 0.433634 3.28481 0.49129 3.10364 0.672086C2.90831 0.867553 2.90831 1.18419 3.10364 1.37961L7.8536 6.13309C8.04841 6.32804 8.04841 6.64566 7.8536 6.84061C7.66413 7.02924 7.33601 7.02924 7.14659 6.84061L2.39663 2.08719C2.2013 1.89172 1.8849 1.89172 1.68962 2.08719L1.6037 2.1732C1.40837 2.36867 1.40837 2.68531 1.6037 2.88073L6.35365 7.6342C6.54846 7.82915 6.54846 8.14678 6.35365 8.34173C6.16419 8.53035 5.83606 8.53035 5.64664 8.34173L0.896638 3.5883C0.702296 3.39382 0.342907 3.43634 0.146643 3.63129C-0.0345282 3.81208 -0.0496687 4.10088 0.111487 4.29972C3.97134 9.07124 6.28869 11.4905 7.0001 11.4905C7.4246 11.4905 8.4918 11.9014 9.58885 12.6093C7.37182 14.5815 2.85328 18.3767 0.908826 20.0036C0.331188 20.4868 0.000159091 21.1978 0.000159091 21.9542C0.000159091 23.358 1.14128 24.5 2.5441 24.5C3.29948 24.5 4.01039 24.1682 4.49329 23.5897C6.16414 21.5907 10.0717 16.9317 12.0003 14.7711C13.9904 17.0017 18.1136 21.9226 19.5083 23.5916C19.9908 24.1692 20.7012 24.5 21.4561 24.5C22.8589 24.5 24 23.358 24 21.9542C24 21.1978 23.669 20.4873 23.0923 20.0045Z" fill="#68696B"/>
</svg>
