<svg width="21" height="21" viewBox="0 0 21 21" fill="none"
    xmlns="http://www.w3.org/2000/svg">
    <path d="M20.57 16.83C20.57 17.19 20.49 17.56 20.32 17.92C20.15 18.28 19.93 18.62 19.64 18.94C19.15 19.48 18.61 19.87 18 20.12C17.4 20.37 16.75 20.5 16.05 20.5C15.03 20.5 13.94 20.26 12.79 19.77C11.64 19.28 10.49 18.62 9.34998 17.79C8.19998 16.95 7.10998 16.02 6.06998 14.99C5.03998 13.95 4.10998 12.86 3.27998 11.72C2.45998 10.58 1.79998 9.44 1.31998 8.31C0.839976 7.17 0.599976 6.08 0.599976 5.04C0.599976 4.36 0.719975 3.71 0.959975 3.11C1.19998 2.5 1.57998 1.94 2.10998 1.44C2.74998 0.81 3.44998 0.5 4.18998 0.5C4.46998 0.5 4.74998 0.56 4.99998 0.68C5.25998 0.8 5.48998 0.98 5.66998 1.24L7.98998 4.51C8.16998 4.76 8.29998 4.99 8.38998 5.21C8.47998 5.42 8.52998 5.63 8.52998 5.82C8.52998 6.06 8.45998 6.3 8.31998 6.53C8.18998 6.76 7.99998 7 7.75998 7.24L6.99998 8.03C6.88998 8.14 6.83998 8.27 6.83998 8.43C6.83998 8.51 6.84998 8.58 6.86998 8.66C6.89998 8.74 6.92998 8.8 6.94998 8.86C7.12998 9.19 7.43998 9.62 7.87998 10.14C8.32998 10.66 8.80997 11.19 9.32998 11.72C9.86998 12.25 10.39 12.74 10.92 13.19C11.44 13.63 11.87 13.93 12.21 14.11C12.26 14.13 12.32 14.16 12.39 14.19C12.47 14.22 12.55 14.23 12.64 14.23C12.81 14.23 12.94 14.17 13.05 14.06L13.81 13.31C14.06 13.06 14.3 12.87 14.53 12.75C14.76 12.61 14.99 12.54 15.24 12.54C15.43 12.54 15.63 12.58 15.85 12.67C16.07 12.76 16.3 12.89 16.55 13.06L19.86 15.41C20.12 15.59 20.3 15.8 20.41 16.05C20.51 16.3 20.57 16.55 20.57 16.83Z" fill="#68696B"/>
</svg>
