<svg width="25" height="25" viewBox="0 0 25 25" fill="none"
    xmlns="http://www.w3.org/2000/svg">
    <path d="M22.57 18.83C22.57 19.19 22.49 19.56 22.32 19.92C22.15 20.28 21.93 20.62 21.64 20.94C21.15 21.48 20.61 21.87 20 22.12C19.4 22.37 18.75 22.5 18.05 22.5C17.03 22.5 15.94 22.26 14.79 21.77C13.64 21.28 12.49 20.62 11.35 19.79C10.2 18.95 9.11001 18.02 8.07001 16.99C7.04001 15.95 6.11001 14.86 5.28001 13.72C4.46001 12.58 3.80001 11.44 3.32001 10.31C2.84001 9.17 2.60001 8.08 2.60001 7.04C2.60001 6.36 2.72001 5.71 2.96001 5.11C3.20001 4.5 3.58001 3.94 4.11001 3.44C4.75001 2.81 5.45001 2.5 6.19001 2.5C6.47001 2.5 6.75001 2.56 7.00001 2.68C7.26001 2.8 7.49001 2.98 7.67001 3.24L9.99001 6.51C10.17 6.76 10.3 6.99 10.39 7.21C10.48 7.42 10.53 7.63 10.53 7.82C10.53 8.06 10.46 8.3 10.32 8.53C10.19 8.76 10 9 9.76001 9.24L9.00001 10.03C8.89001 10.14 8.84001 10.27 8.84001 10.43C8.84001 10.51 8.85001 10.58 8.87001 10.66C8.90001 10.74 8.93001 10.8 8.95001 10.86C9.13001 11.19 9.44001 11.62 9.88001 12.14C10.33 12.66 10.81 13.19 11.33 13.72C11.87 14.25 12.39 14.74 12.92 15.19C13.44 15.63 13.87 15.93 14.21 16.11C14.26 16.13 14.32 16.16 14.39 16.19C14.47 16.22 14.55 16.23 14.64 16.23C14.81 16.23 14.94 16.17 15.05 16.06L15.81 15.31C16.06 15.06 16.3 14.87 16.53 14.75C16.76 14.61 16.99 14.54 17.24 14.54C17.43 14.54 17.63 14.58 17.85 14.67C18.07 14.76 18.3 14.89 18.55 15.06L21.86 17.41C22.12 17.59 22.3 17.8 22.41 18.05C22.51 18.3 22.57 18.55 22.57 18.83Z" stroke="#7D7C81" stroke-width="1.5" stroke-miterlimit="10"/>
</svg>
