<svg width="24" height="20" viewBox="0 0 24 20" fill="none" xmlns="http://www.w3.org/2000/svg">
<path d="M23.8447 2.42414C23.75 2.30641 23.6198 2.22233 23.4736 2.18437C23.3273 2.14641 23.1727 2.15659 23.0326 2.21339C22.9869 2.23186 22.9416 2.25 22.8968 2.26777C23.0775 1.95628 23.2256 1.62558 23.3427 1.27402C23.3858 1.14431 23.3901 1.00485 23.3552 0.872702C23.3203 0.740552 23.2477 0.621436 23.1462 0.529922C23.0447 0.438349 22.9187 0.378349 22.7837 0.357269C22.6487 0.336188 22.5104 0.354942 22.3859 0.411234C22.3826 0.412734 22.3654 0.420797 22.3361 0.435422C21.221 0.994828 20.3514 1.32295 19.9561 1.40002C19.9286 1.37597 19.9012 1.3518 19.8739 1.3275C19.3842 0.893578 18.3655 0 16.3061 0C15.1851 0 13.5809 0.440016 12.4405 1.70109C11.5409 2.69625 11.0927 3.99938 11.1032 5.5838C7.80777 5.1802 5.10552 3.69633 2.86194 1.06364C2.7851 0.973575 2.68676 0.904365 2.57605 0.862425C2.46533 0.820485 2.34582 0.807172 2.22859 0.82372C2.11136 0.840268 2.00021 0.886141 1.90543 0.957089C1.81065 1.02804 1.73532 1.12176 1.68641 1.22958C1.38266 1.89966 0.985298 2.93273 1.04014 4.16194C1.07642 4.96852 1.30072 5.73169 1.71013 6.44527C1.2912 6.42403 0.944939 6.7732 0.972782 7.194C1.08922 8.95322 1.73506 10.3152 2.89906 11.2653C2.79084 11.3522 2.71071 11.469 2.66874 11.6013C2.62677 11.7335 2.62484 11.8752 2.66319 12.0086C3.02942 13.2793 4.10113 14.6599 5.73922 15.3217C4.25881 16.0684 2.56545 16.3819 0.760767 16.2332C0.602841 16.2203 0.445187 16.2611 0.313327 16.3489C0.181466 16.4368 0.0831185 16.5666 0.0342043 16.7173C-0.0146263 16.8681 -0.0110839 17.0309 0.0442568 17.1794C0.0995974 17.3279 0.20349 17.4534 0.339079 17.5354C2.6772 18.951 5.21206 19.6686 7.8733 19.6686C13.6042 19.6686 16.9288 16.8224 18.7086 14.4349C20.9044 11.4891 21.6835 8.03391 21.6835 5.97009C21.6835 5.69963 21.6755 5.64473 21.6837 5.56838C21.9571 5.3272 22.7117 4.96247 23.8768 3.26236C23.9622 3.13776 24.0053 2.98892 23.9995 2.83793C23.9938 2.68693 23.9395 2.54186 23.8447 2.42414ZM20.2751 5.74711C20.2762 5.79586 20.2774 5.86102 20.2774 5.97014C20.2774 7.8188 19.5712 10.9246 17.5812 13.5945C15.9937 15.724 13.021 18.2626 7.87353 18.2626C6.38028 18.2626 4.92992 18.0113 3.53778 17.5133C5.16903 17.2288 6.67288 16.5725 7.97806 15.5649C8.0917 15.4772 8.17577 15.3569 8.21898 15.22C8.26218 15.0832 8.26245 14.9363 8.21975 14.7993C8.17713 14.6623 8.09357 14.5416 7.98032 14.4534C7.86707 14.3653 7.72955 14.3139 7.58624 14.3062C6.18233 14.231 5.07439 13.4606 4.45733 12.5471C4.6992 12.5316 4.98725 12.4935 5.41606 12.418C5.57131 12.3907 5.71287 12.312 5.81801 12.1946C5.92314 12.0771 5.98575 11.9277 5.99577 11.7704C6.00584 11.6131 5.96275 11.457 5.87342 11.3271C5.78409 11.1972 5.65371 11.1011 5.5032 11.0543C3.89155 10.5524 2.93333 9.63684 2.55177 8.21044C2.80372 8.27513 3.10564 8.32561 3.60533 8.38824C3.75576 8.40717 3.90829 8.37694 4.04013 8.30206C4.17197 8.22719 4.27606 8.11168 4.33686 7.97278C4.39766 7.83392 4.41197 7.67913 4.37765 7.53148C4.34333 7.38383 4.26222 7.25121 4.14641 7.15341C2.35236 5.63888 2.25805 4.09369 2.58838 2.84672C5.05939 5.35988 8.10059 6.80841 11.8013 7.06238C12.2368 7.09224 12.5925 6.72234 12.5489 6.29039C12.3918 4.73086 12.7062 3.50428 13.4837 2.64445C14.3163 1.72359 15.5244 1.39688 16.3061 1.39688C17.8321 1.39688 18.4995 1.9883 18.9411 2.3798C19.1988 2.60808 19.442 2.8238 19.8089 2.8238C20.0656 2.8238 20.3975 2.75095 20.7647 2.63428C20.6308 2.74757 20.4913 2.85416 20.3468 2.95364C20.2198 3.04146 20.1253 3.16864 20.0778 3.31554C20.0303 3.46244 20.0324 3.6209 20.0839 3.76645C20.1354 3.91204 20.2333 4.03664 20.3627 4.121C20.492 4.20536 20.6455 4.24478 20.7995 4.23319C20.9226 4.2239 21.0455 4.21119 21.1679 4.19508C20.6807 4.56516 20.2558 4.79053 20.2751 5.74711Z" fill="#1A1929"/>
</svg>
