<svg width="32" height="32" viewBox="0 0 32 32" fill="none" xmlns="http://www.w3.org/2000/svg">
<path d="M16 20.6665C18.9466 20.6665 21.3333 18.2798 21.3333 15.3332V7.99984C21.3333 5.05317 18.9466 2.6665 16 2.6665C13.0533 2.6665 10.6666 5.05317 10.6666 7.99984V15.3332C10.6666 18.2798 13.0533 20.6665 16 20.6665Z" stroke="#7D7C81" stroke-width="2" stroke-linecap="round" stroke-linejoin="round"/>
<path d="M5.80005 12.8667V15.1334C5.80005 20.76 10.3734 25.3334 16 25.3334C21.6267 25.3334 26.2 20.76 26.2 15.1334V12.8667" stroke="#7D7C81" stroke-width="2" stroke-linecap="round" stroke-linejoin="round"/>
<path d="M14.1466 8.57316C15.3466 8.13316 16.6533 8.13316 17.8533 8.57316" stroke="#7D7C81" stroke-width="2" stroke-linecap="round" stroke-linejoin="round"/>
<path d="M14.9333 11.3998C15.64 11.2131 16.3733 11.2131 17.08 11.3998" stroke="#7D7C81" stroke-width="2" stroke-linecap="round" stroke-linejoin="round"/>
<path d="M16 25.3335V29.3335" stroke="#7D7C81" stroke-width="2" stroke-linecap="round" stroke-linejoin="round"/>
</svg>
