<svg width="24" height="16" viewBox="0 0 24 16" fill="none" xmlns="http://www.w3.org/2000/svg">
<path d="M13.5755 0.949707H2.62582C1.18162 0.949707 0 2.13133 0 3.57553V12.4245C0 13.8687 1.18162 15.0504 2.62582 15.0504H13.5755C15.0197 15.0504 16.2013 13.8687 16.2013 12.4245V3.57553C16.2013 2.10507 15.0197 0.949707 13.5755 0.949707ZM22.0569 2.39391C21.8993 2.42017 21.7418 2.49894 21.6105 2.57772L17.5142 4.94095V11.0329L21.6368 13.3961C22.3983 13.8425 23.3435 13.5799 23.7899 12.8184C23.9212 12.5821 24 12.3195 24 12.0307V3.91688C24 2.94533 23.081 2.15758 22.0569 2.39391Z" fill="#68696B"/>
</svg>
